<svg width="60" height="60" viewBox="0 0 60 60" fill="none" xmlns="http://www.w3.org/2000/svg">
<path d="M35 5C39.5749 4.99782 44.0123 6.56417 47.5721 9.43782C51.1319 12.3115 53.5989 16.3187 54.5616 20.7912C55.5244 25.2637 54.9247 29.931 52.8626 34.0149C50.8005 38.0987 47.4006 41.3521 43.23 43.2325C41.8969 46.1798 39.8688 48.7597 37.3196 50.7511C34.7705 52.7424 31.7764 54.0858 28.5941 54.6659C25.4117 55.246 22.1362 55.0455 19.0484 54.0817C15.9605 53.1179 13.1526 51.4195 10.8653 49.1322C8.57794 46.8449 6.87955 44.0369 5.91576 40.9491C4.95196 37.8613 4.75152 34.5857 5.33162 31.4034C5.91172 28.2211 7.25505 25.227 9.2464 22.6778C11.2378 20.1287 13.8177 18.1006 16.765 16.7675C18.3503 13.2597 20.9139 10.2838 24.1483 8.19652C27.3827 6.10929 31.1506 4.99941 35 5V5ZM25 20C23.0301 20 21.0796 20.388 19.2597 21.1418C17.4398 21.8956 15.7862 23.0005 14.3934 24.3934C13.0005 25.7863 11.8956 27.4399 11.1418 29.2598C10.388 31.0796 9.99997 33.0302 9.99997 35C9.99997 36.9698 10.388 38.9204 11.1418 40.7403C11.8956 42.5601 13.0005 44.2137 14.3934 45.6066C15.7862 46.9995 17.4398 48.1044 19.2597 48.8582C21.0796 49.612 23.0301 50 25 50C28.9782 50 32.7935 48.4197 35.6066 45.6066C38.4196 42.7936 40 38.9783 40 35C40 31.0218 38.4196 27.2064 35.6066 24.3934C32.7935 21.5804 28.9782 20 25 20ZM27.5 22.5V25H32.5V30H22.5C22.1876 29.9994 21.8863 30.1158 21.6555 30.3263C21.4247 30.5367 21.281 30.826 21.2528 31.1371C21.2246 31.4481 21.3138 31.7585 21.503 32.0071C21.6922 32.2556 21.9676 32.4244 22.275 32.48L22.5 32.5H27.5C29.1576 32.5 30.7473 33.1585 31.9194 34.3306C33.0915 35.5027 33.75 37.0924 33.75 38.75C33.75 40.4076 33.0915 41.9973 31.9194 43.1694C30.7473 44.3415 29.1576 45 27.5 45V47.5H22.5V45H17.5V40H27.5C27.8123 40.0006 28.1136 39.8842 28.3444 39.6737C28.5753 39.4633 28.7189 39.174 28.7472 38.863C28.7754 38.5519 28.6861 38.2415 28.4969 37.9929C28.3077 37.7444 28.0323 37.5757 27.725 37.52L27.5 37.5H22.5C20.8424 37.5 19.2527 36.8415 18.0806 35.6694C16.9085 34.4973 16.25 32.9076 16.25 31.25C16.25 29.5924 16.9085 28.0027 18.0806 26.8306C19.2527 25.6585 20.8424 25 22.5 25V22.5H27.5ZM35 10C32.8817 9.99752 30.787 10.4449 28.8545 11.3124C26.922 12.18 25.1958 13.4479 23.79 15.0325C26.6156 14.861 29.4455 15.2912 32.0925 16.2949C34.7395 17.2985 37.1432 18.8526 39.1448 20.8545C41.1464 22.8563 42.7003 25.2602 43.7036 27.9073C44.7069 30.5544 45.1368 33.3844 44.965 36.21C47.238 34.1891 48.843 31.5249 49.567 28.5708C50.2911 25.6167 50.1 22.5123 49.0191 19.6693C47.9382 16.8263 46.0185 14.3791 43.5148 12.6522C41.0111 10.9253 38.0415 10.0004 35 10V10Z" fill="url(#paint0_linear_54_90)"/>
<defs>
<linearGradient id="paint0_linear_54_90" x1="30.0085" y1="5" x2="30.0085" y2="54.9901" gradientUnits="userSpaceOnUse">
<stop stop-color="white"/>
<stop offset="1" stop-color="#1152FA"/>
</linearGradient>
</defs>
</svg>
