<svg width="60" height="60" viewBox="0 0 60 60" fill="none" xmlns="http://www.w3.org/2000/svg">
<path d="M41.25 5C44.8967 5 48.3941 6.44866 50.9727 9.02728C53.5513 11.6059 55 15.1033 55 18.75V25C55 27.22 54.035 29.215 52.5 30.5875V42.5C52.4999 44.0511 52.0191 45.5641 51.1237 46.8306C50.2283 48.0972 48.9623 49.0551 47.5 49.5725V52.5C47.5 53.163 47.2366 53.7989 46.7678 54.2678C46.2989 54.7366 45.663 55 45 55H15C14.337 55 13.7011 54.7366 13.2322 54.2678C12.7634 53.7989 12.5 53.163 12.5 52.5V49.575C11.0373 49.0575 9.77105 48.0992 8.8756 46.8321C7.98015 45.5651 7.49955 44.0515 7.5 42.5V15C7.5 12.3478 8.55357 9.8043 10.4289 7.92893C12.3043 6.05357 14.8478 5 17.5 5H41.25ZM23.75 27.5H12.5V42.5C12.5001 43.1123 12.7249 43.7033 13.1318 44.1609C13.5387 44.6185 14.0994 44.9109 14.7075 44.9825L15 45H45C45.6123 44.9999 46.2033 44.7751 46.6609 44.3682C47.1185 43.9613 47.4109 43.4006 47.4825 42.7925L47.5 42.5V32.5H32.41C32.1094 34.5824 31.0685 36.4869 29.4781 37.8643C27.8876 39.2417 25.854 39.9999 23.75 40H15V35H23.75C24.6822 35 25.581 34.6527 26.271 34.026C26.9611 33.3992 27.393 32.5379 27.4825 31.61L27.5 31.25C27.5 30.3178 27.1527 29.419 26.526 28.729C25.8992 28.0389 25.0379 27.607 24.11 27.5175L23.75 27.5ZM41.25 10H17.5C16.2386 9.9996 15.0236 10.476 14.0986 11.3337C13.1737 12.1915 12.6071 13.3671 12.5125 14.625L12.5 15V22.5H23.75C25.4061 22.4997 27.0283 22.9693 28.4281 23.8544C29.8279 24.7395 30.9477 26.0037 31.6575 27.5H47.5C48.1123 27.4999 48.7033 27.2751 49.1609 26.8682C49.6185 26.4613 49.9109 25.9006 49.9825 25.2925L50 25V18.75C50.0002 16.5123 49.1431 14.3596 47.6049 12.7345C46.0667 11.1093 43.9643 10.1353 41.73 10.0125L41.25 10Z" fill="url(#paint0_linear_285_128)"/>
<defs>
<linearGradient id="paint0_linear_285_128" x1="31.25" y1="5" x2="31.25" y2="55" gradientUnits="userSpaceOnUse">
<stop stop-color="white"/>
<stop offset="1" stop-color="#FA5711"/>
</linearGradient>
</defs>
</svg>
