<svg width="60" height="60" viewBox="0 0 60 60" fill="none" xmlns="http://www.w3.org/2000/svg">
<path d="M30 10C45.1875 10 57.5 22.3125 57.5 37.5V50H52.5V37.5C52.4999 31.6474 50.2194 26.0251 46.1423 21.8262C42.0653 17.6274 36.5126 15.1823 30.6625 15.01L30 15C24.1474 15.0001 18.5251 17.2806 14.3262 21.3577C10.1274 25.4347 7.68233 30.9874 7.51 36.8375L7.5 37.5V50H2.5V37.5C2.5 22.3125 14.8125 10 30 10ZM30 20C34.6413 20 39.0925 21.8437 42.3744 25.1256C45.6563 28.4075 47.5 32.8587 47.5 37.5V50H42.5V37.5C42.4998 34.2788 41.2561 31.1821 39.0284 28.8556C36.8006 26.529 33.7606 25.1523 30.5425 25.0125L30 25C26.7788 25.0002 23.6821 26.2439 21.3556 28.4716C19.029 30.6994 17.6523 33.7394 17.5125 36.9575L17.5 37.5V50H12.5V37.5C12.5 32.8587 14.3437 28.4075 17.6256 25.1256C20.9075 21.8437 25.3587 20 30 20ZM30 30C31.9891 30 33.8968 30.7902 35.3033 32.1967C36.7098 33.6032 37.5 35.5109 37.5 37.5V50H32.5V37.5C32.4999 36.8877 32.2751 36.2967 31.8682 35.8391C31.4613 35.3815 30.9006 35.0891 30.2925 35.0175L30 35C29.3877 35.0001 28.7967 35.2249 28.3391 35.6318C27.8815 36.0387 27.5891 36.5994 27.5175 37.2075L27.5 37.5V50H22.5V37.5C22.5 35.5109 23.2902 33.6032 24.6967 32.1967C26.1032 30.7902 28.0109 30 30 30Z" fill="url(#paint0_linear_55_642)"/>
<defs>
<linearGradient id="paint0_linear_55_642" x1="30" y1="10" x2="30" y2="50" gradientUnits="userSpaceOnUse">
<stop stop-color="white"/>
<stop offset="1" stop-color="#6A6A6A"/>
</linearGradient>
</defs>
</svg>
