<svg width="60" height="60" viewBox="0 0 60 60" fill="none" xmlns="http://www.w3.org/2000/svg">
<path d="M12.5 32.4999C12.5 19.7799 19.7575 8.90992 30 4.54492C40.2425 8.90992 47.5 19.7799 47.5 32.4999C47.5 34.5574 47.31 36.5649 46.95 38.5074L51.8 43.0874C52.0005 43.2772 52.1325 43.528 52.1755 43.8007C52.2185 44.0734 52.1699 44.3527 52.0375 44.5949L45.8 56.0324C45.707 56.2032 45.5754 56.3499 45.4157 56.4609C45.256 56.5719 45.0727 56.6441 44.8802 56.6717C44.6877 56.6994 44.4914 56.6818 44.3069 56.6203C44.1224 56.5588 43.9549 56.4551 43.8175 56.3174L38.2325 50.7324C37.7638 50.2635 37.128 50.0001 36.465 49.9999H23.535C22.872 50.0001 22.2362 50.2635 21.7675 50.7324L16.1825 56.3174C16.0451 56.4551 15.8776 56.5588 15.6931 56.6203C15.5086 56.6818 15.3123 56.6994 15.1198 56.6717C14.9273 56.6441 14.744 56.5719 14.5843 56.4609C14.4246 56.3499 14.293 56.2032 14.2 56.0324L7.9625 44.5949C7.83006 44.3527 7.78153 44.0734 7.8245 43.8007C7.86746 43.528 7.9995 43.2772 8.2 43.0874L13.05 38.5074C12.6925 36.5649 12.5 34.5574 12.5 32.4999ZM16.19 49.2399L18.2325 47.1974C19.6387 45.7908 21.546 45.0003 23.535 44.9999H36.465C38.454 45.0003 40.3613 45.7908 41.7675 47.1974L43.81 49.2399L46.265 44.7399L43.515 42.1399C42.9072 41.5659 42.4531 40.8487 42.1941 40.0538C41.9351 39.2589 41.8795 38.4118 42.0325 37.5899C42.3425 35.9299 42.5 34.2274 42.5 32.4999C42.5 22.8249 37.5125 14.2499 30 10.0999C22.4875 14.2499 17.5 22.8249 17.5 32.4999C17.5 34.2274 17.6575 35.9299 17.9675 37.5924C18.1205 38.4143 18.0649 39.2614 17.8059 40.0563C17.5469 40.8512 17.0928 41.5684 16.485 42.1424L13.735 44.7399L16.19 49.2399ZM30 32.4999C28.6739 32.4999 27.4021 31.9731 26.4645 31.0355C25.5268 30.0978 25 28.826 25 27.4999C25 26.1738 25.5268 24.9021 26.4645 23.9644C27.4021 23.0267 28.6739 22.4999 30 22.4999C31.3261 22.4999 32.5979 23.0267 33.5355 23.9644C34.4732 24.9021 35 26.1738 35 27.4999C35 28.826 34.4732 30.0978 33.5355 31.0355C32.5979 31.9731 31.3261 32.4999 30 32.4999Z" fill="url(#paint0_linear_54_380)"/>
<defs>
<linearGradient id="paint0_linear_54_380" x1="30" y1="4.54492" x2="30" y2="56.6845" gradientUnits="userSpaceOnUse">
<stop stop-color="white"/>
<stop offset="1" stop-color="#00BC35"/>
</linearGradient>
</defs>
</svg>
