<svg width="60" height="60" viewBox="0 0 60 60" fill="none" xmlns="http://www.w3.org/2000/svg">
<path d="M52.5 2.5V32.5C52.4994 36.4341 51.4674 40.2992 49.5068 43.7099C47.5462 47.1207 44.7256 49.9577 41.3263 51.9381C37.927 53.9185 34.0679 54.973 30.1339 54.9964C26.1999 55.0198 22.3286 54.0113 18.9059 52.0716C15.4833 50.1318 12.6292 47.3285 10.6281 43.9414C8.62703 40.5543 7.54903 36.7017 7.50163 32.7679C7.45423 28.8341 8.43909 24.9566 10.358 21.5223C12.2768 18.0879 15.0626 15.2167 18.4375 13.195L35 3.6325V10.5575L52.5 2.5ZM47.5 10.305L30 18.365V12.29L21.4925 17.2025C18.8669 18.6621 16.6615 20.7733 15.0887 23.3326C13.5159 25.892 12.6286 28.8132 12.5125 31.815L12.5 32.5C12.4978 37.0908 14.2996 41.4986 17.517 44.7733C20.7344 48.048 25.1098 49.9273 29.7 50.006C34.2901 50.0847 38.7273 48.3565 42.0551 45.1941C45.383 42.0317 47.3348 37.6882 47.49 33.1L47.5 32.5V10.305ZM30 20C33.3152 20 36.4946 21.317 38.8388 23.6612C41.183 26.0054 42.5 29.1848 42.5 32.5C42.5 35.8152 41.183 38.9946 38.8388 41.3388C36.4946 43.683 33.3152 45 30 45C26.6848 45 23.5054 43.683 21.1612 41.3388C18.817 38.9946 17.5 35.8152 17.5 32.5C17.5 29.1848 18.817 26.0054 21.1612 23.6612C23.5054 21.317 26.6848 20 30 20ZM30 25C28.0109 25 26.1032 25.7902 24.6967 27.1967C23.2902 28.6032 22.5 30.5109 22.5 32.5C22.5 34.4891 23.2902 36.3968 24.6967 37.8033C26.1032 39.2098 28.0109 40 30 40C31.9891 40 33.8968 39.2098 35.3033 37.8033C36.7098 36.3968 37.5 34.4891 37.5 32.5C37.5 30.5109 36.7098 28.6032 35.3033 27.1967C33.8968 25.7902 31.9891 25 30 25Z" fill="url(#paint0_linear_54_376)"/>
<defs>
<linearGradient id="paint0_linear_54_376" x1="30" y1="2.5" x2="30" y2="54.9968" gradientUnits="userSpaceOnUse">
<stop stop-color="white"/>
<stop offset="1" stop-color="#FF34DF"/>
</linearGradient>
</defs>
</svg>
