<svg width="190" height="86" viewBox="0 0 190 86" fill="none" xmlns="http://www.w3.org/2000/svg">
<rect x="9" width="181" height="86" rx="7" fill="#626DFF"/>
<path d="M1.74574 42.5121C0.824819 41.7145 0.824819 40.2859 1.74574 39.4883L9 33.206L9 48.7944L1.74574 42.5121Z" fill="#626DFF"/>
<path d="M40.1406 39.25C39.5885 39.25 39.0781 39.1146 38.6094 38.8438C38.1406 38.5625 37.7656 38.1875 37.4844 37.7188C37.2135 37.25 37.0781 36.7396 37.0781 36.1875V19.7031H32.4688C32.0312 19.7031 31.625 19.5938 31.25 19.375C30.875 19.1562 30.5781 18.8594 30.3594 18.4844C30.1406 18.1094 30.0312 17.7031 30.0312 17.2656C30.0312 16.8281 30.1406 16.4271 30.3594 16.0625C30.5781 15.6875 30.875 15.3906 31.25 15.1719C31.625 14.9531 32.0312 14.8438 32.4688 14.8438H47.8281C48.2656 14.8438 48.6667 14.9531 49.0312 15.1719C49.4062 15.3906 49.7031 15.6875 49.9219 16.0625C50.1406 16.4271 50.25 16.8281 50.25 17.2656C50.25 17.7031 50.1406 18.1094 49.9219 18.4844C49.7031 18.8594 49.4062 19.1562 49.0312 19.375C48.6667 19.5938 48.2656 19.7031 47.8281 19.7031H43.2188V36.1875C43.2188 36.7396 43.0781 37.25 42.7969 37.7188C42.526 38.1875 42.1562 38.5625 41.6875 38.8438C41.2188 39.1146 40.7031 39.25 40.1406 39.25ZM50.9844 39.25C50.4531 39.25 49.9635 39.1198 49.5156 38.8594C49.0781 38.599 48.7292 38.2448 48.4688 37.7969C48.2083 37.349 48.0781 36.8646 48.0781 36.3438C48.0781 36.0521 48.1302 35.7344 48.2344 35.3906L54.25 17.9688C54.5938 16.9583 55.2083 16.1406 56.0938 15.5156C56.9792 14.8906 58.0052 14.5781 59.1719 14.5781C60.3385 14.5781 61.3646 14.8906 62.25 15.5156C63.1458 16.1406 63.7656 16.9583 64.1094 17.9688L70.125 35.3906C70.2292 35.7344 70.2812 36.0521 70.2812 36.3438C70.2812 36.8646 70.151 37.349 69.8906 37.7969C69.6302 38.2448 69.276 38.599 68.8281 38.8594C68.3802 39.1198 67.8906 39.25 67.3594 39.25C66.7135 39.25 66.1302 39.0625 65.6094 38.6875C65.099 38.3021 64.7552 37.8177 64.5781 37.2344L63.5312 33.875H54.8281L53.7656 37.2344C53.5885 37.8177 53.2396 38.3021 52.7188 38.6875C52.2083 39.0625 51.6302 39.25 50.9844 39.25ZM56.3281 29.1406H62.0156L60.4844 24.25C60.3698 23.9062 60.1927 23.2969 59.9531 22.4219C59.7135 21.5469 59.5156 20.8021 59.3594 20.1875H58.9844C58.8594 20.6979 58.6719 21.4167 58.4219 22.3438C58.1719 23.2604 57.9844 23.8958 57.8594 24.25L56.3281 29.1406ZM75.3281 39.25C74.7865 39.25 74.2865 39.1146 73.8281 38.8438C73.3698 38.5729 73.0052 38.2083 72.7344 37.75C72.4635 37.2917 72.3281 36.7917 72.3281 36.25V17.5938C72.3281 17.0417 72.4635 16.5365 72.7344 16.0781C73.0052 15.6198 73.3698 15.2552 73.8281 14.9844C74.2865 14.7135 74.7865 14.5781 75.3281 14.5781C75.8906 14.5781 76.401 14.7135 76.8594 14.9844C77.3281 15.2552 77.6979 15.6198 77.9688 16.0781C78.2396 16.5365 78.375 17.0417 78.375 17.5938V25.4375L86.0469 15.5781C86.276 15.276 86.5729 15.0365 86.9375 14.8594C87.3021 14.6719 87.6771 14.5781 88.0625 14.5781C88.5208 14.5781 88.9479 14.6927 89.3438 14.9219C89.7396 15.151 90.0521 15.4635 90.2812 15.8594C90.5104 16.2552 90.625 16.6823 90.625 17.1406C90.625 17.4427 90.5729 17.7344 90.4688 18.0156C90.3646 18.2865 90.224 18.5312 90.0469 18.75L85.1562 24.8281L91.3906 34.5781C91.7135 35.1094 91.875 35.6562 91.875 36.2188C91.875 36.7708 91.7396 37.2812 91.4688 37.75C91.1979 38.2083 90.8333 38.5729 90.375 38.8438C89.9167 39.1146 89.4115 39.25 88.8594 39.25C88.3281 39.25 87.8281 39.125 87.3594 38.875C86.8906 38.6146 86.526 38.2708 86.2656 37.8438L81.0312 29.4688L78.375 32.7344V36.25C78.375 36.7917 78.2396 37.2917 77.9688 37.75C77.6979 38.2083 77.3281 38.5729 76.8594 38.8438C76.401 39.1146 75.8906 39.25 75.3281 39.25ZM96.8281 39C95.9427 39 95.2656 38.7708 94.7969 38.3125C94.3281 37.8438 94.0938 37.1667 94.0938 36.2812V17.5625C94.0938 16.6771 94.3281 16.0052 94.7969 15.5469C95.2656 15.0781 95.9427 14.8438 96.8281 14.8438H108.594C109.031 14.8438 109.438 14.9583 109.812 15.1875C110.198 15.4062 110.5 15.7083 110.719 16.0938C110.948 16.4688 111.062 16.8854 111.062 17.3438C111.062 17.7812 110.948 18.1875 110.719 18.5625C110.5 18.9375 110.198 19.2396 109.812 19.4688C109.438 19.6875 109.031 19.7969 108.594 19.7969H100.188V24.5H107.125C107.552 24.5 107.948 24.6094 108.312 24.8281C108.688 25.0469 108.984 25.3438 109.203 25.7188C109.422 26.0833 109.531 26.4792 109.531 26.9062C109.531 27.3438 109.422 27.75 109.203 28.125C108.984 28.5 108.688 28.7969 108.312 29.0156C107.948 29.2344 107.552 29.3438 107.125 29.3438H100.188V34.0469H109.234C109.672 34.0469 110.078 34.1615 110.453 34.3906C110.839 34.6094 111.141 34.9062 111.359 35.2812C111.589 35.6562 111.703 36.0625 111.703 36.5C111.703 36.9479 111.589 37.3646 111.359 37.75C111.141 38.1354 110.839 38.4427 110.453 38.6719C110.078 38.8906 109.672 39 109.234 39H96.8281ZM125.047 39.25C124.495 39.25 123.99 39.1198 123.531 38.8594C123.073 38.5885 122.708 38.224 122.438 37.7656C122.167 37.3073 122.031 36.8125 122.031 36.2812V19.125C122.031 18.3021 122.234 17.5469 122.641 16.8594C123.057 16.1615 123.615 15.6094 124.312 15.2031C125.01 14.7865 125.766 14.5781 126.578 14.5781C127.224 14.5781 127.839 14.7083 128.422 14.9688C129.016 15.2292 129.526 15.5938 129.953 16.0625C130.391 16.5208 130.708 17.0417 130.906 17.625L134.703 28.5C134.839 28.8542 134.99 29.3594 135.156 30.0156C135.323 30.6719 135.432 31.1927 135.484 31.5781H135.859C135.901 31.2135 136.005 30.7031 136.172 30.0469C136.339 29.3906 136.49 28.875 136.625 28.5L140.438 17.625C140.635 17.0417 140.948 16.5208 141.375 16.0625C141.812 15.5938 142.323 15.2292 142.906 14.9688C143.5 14.7083 144.12 14.5781 144.766 14.5781C145.578 14.5781 146.333 14.7865 147.031 15.2031C147.729 15.6094 148.281 16.1615 148.688 16.8594C149.094 17.5469 149.297 18.3021 149.297 19.125V36.2812C149.297 36.8125 149.161 37.3073 148.891 37.7656C148.62 38.224 148.255 38.5885 147.797 38.8594C147.339 39.1198 146.839 39.25 146.297 39.25C145.755 39.25 145.255 39.1198 144.797 38.8594C144.349 38.5885 143.99 38.224 143.719 37.7656C143.448 37.3073 143.312 36.8125 143.312 36.2812V22.6875H143.125L142.875 23.9844C142.688 24.8802 142.417 25.8333 142.062 26.8438L138.484 37.1094C138.266 37.7135 137.901 38.224 137.391 38.6406C136.88 39.0469 136.307 39.25 135.672 39.25C135.036 39.25 134.458 39.0469 133.938 38.6406C133.427 38.224 133.068 37.7135 132.859 37.1094L129.266 26.8438C128.88 25.6771 128.615 24.724 128.469 23.9844L128.219 22.6875H128.016V36.2812C128.016 36.8125 127.88 37.3073 127.609 37.7656C127.339 38.2135 126.974 38.5729 126.516 38.8438C126.068 39.1146 125.578 39.25 125.047 39.25ZM155.328 39C154.443 39 153.766 38.7708 153.297 38.3125C152.828 37.8438 152.594 37.1667 152.594 36.2812V17.5625C152.594 16.6771 152.828 16.0052 153.297 15.5469C153.766 15.0781 154.443 14.8438 155.328 14.8438H167.094C167.531 14.8438 167.938 14.9583 168.312 15.1875C168.698 15.4062 169 15.7083 169.219 16.0938C169.448 16.4688 169.562 16.8854 169.562 17.3438C169.562 17.7812 169.448 18.1875 169.219 18.5625C169 18.9375 168.698 19.2396 168.312 19.4688C167.938 19.6875 167.531 19.7969 167.094 19.7969H158.688V24.5H165.625C166.052 24.5 166.448 24.6094 166.812 24.8281C167.188 25.0469 167.484 25.3438 167.703 25.7188C167.922 26.0833 168.031 26.4792 168.031 26.9062C168.031 27.3438 167.922 27.75 167.703 28.125C167.484 28.5 167.188 28.7969 166.812 29.0156C166.448 29.2344 166.052 29.3438 165.625 29.3438H158.688V34.0469H167.734C168.172 34.0469 168.578 34.1615 168.953 34.3906C169.339 34.6094 169.641 34.9062 169.859 35.2812C170.089 35.6562 170.203 36.0625 170.203 36.5C170.203 36.9479 170.089 37.3646 169.859 37.75C169.641 38.1354 169.339 38.4427 168.953 38.6719C168.578 38.8906 168.172 39 167.734 39H155.328ZM34.7656 71.25C34.2135 71.25 33.7031 71.1146 33.2344 70.8438C32.7656 70.5625 32.3906 70.1875 32.1094 69.7188C31.8385 69.25 31.7031 68.7396 31.7031 68.1875V49.6562C31.7031 49.0938 31.8385 48.5781 32.1094 48.1094C32.3906 47.6406 32.7656 47.2708 33.2344 47C33.7031 46.7188 34.2135 46.5781 34.7656 46.5781C35.3281 46.5781 35.8438 46.7188 36.3125 47C36.7812 47.2708 37.151 47.6406 37.4219 48.1094C37.7031 48.5781 37.8438 49.0938 37.8438 49.6562V56.1562H46.6719V49.6562C46.6719 49.0938 46.8073 48.5781 47.0781 48.1094C47.3594 47.6406 47.7344 47.2708 48.2031 47C48.6719 46.7188 49.1875 46.5781 49.75 46.5781C50.3021 46.5781 50.8125 46.7188 51.2812 47C51.75 47.2708 52.1198 47.6406 52.3906 48.1094C52.6719 48.5781 52.8125 49.0938 52.8125 49.6562V68.1875C52.8125 68.7396 52.6719 69.25 52.3906 69.7188C52.1198 70.1875 51.75 70.5625 51.2812 70.8438C50.8125 71.1146 50.3021 71.25 49.75 71.25C49.1875 71.25 48.6719 71.1146 48.2031 70.8438C47.7344 70.5625 47.3594 70.1875 47.0781 69.7188C46.8073 69.25 46.6719 68.7396 46.6719 68.1875V61.1406H37.8438V68.1875C37.8438 68.7396 37.7031 69.25 37.4219 69.7188C37.151 70.1875 36.7812 70.5625 36.3125 70.8438C35.8438 71.1146 35.3281 71.25 34.7656 71.25ZM67.2969 71.5156C64.849 71.5156 62.7344 71 60.9531 69.9688C59.1719 68.9271 57.8073 67.4583 56.8594 65.5625C55.9219 63.6562 55.4531 61.4375 55.4531 58.9062C55.4531 56.3958 55.9323 54.1927 56.8906 52.2969C57.849 50.401 59.224 48.9323 61.0156 47.8906C62.8073 46.849 64.9219 46.3281 67.3594 46.3281C69.8073 46.3281 71.9219 46.849 73.7031 47.8906C75.4844 48.9219 76.8438 50.3854 77.7812 52.2812C78.7292 54.1667 79.2031 56.375 79.2031 58.9062C79.2031 61.4375 78.724 63.651 77.7656 65.5469C76.8177 67.4427 75.4427 68.9115 73.6406 69.9531C71.849 70.9948 69.7344 71.5156 67.2969 71.5156ZM67.3281 66.6406C68.3906 66.6406 69.3229 66.3698 70.125 65.8281C70.9375 65.2865 71.5729 64.4375 72.0312 63.2812C72.5 62.125 72.7344 60.6667 72.7344 58.9062C72.7344 57.1458 72.5 55.6927 72.0312 54.5469C71.5729 53.3906 70.9375 52.5417 70.125 52C69.3229 51.4583 68.3906 51.1875 67.3281 51.1875C66.2656 51.1875 65.3281 51.4583 64.5156 52C63.7135 52.5417 63.0781 53.3906 62.6094 54.5469C62.151 55.6927 61.9219 57.1458 61.9219 58.9062C61.9219 60.6667 62.151 62.125 62.6094 63.2812C63.0781 64.4375 63.7135 65.2865 64.5156 65.8281C65.3281 66.3698 66.2656 66.6406 67.3281 66.6406ZM84.7344 71.25C84.1823 71.25 83.6771 71.1198 83.2188 70.8594C82.7604 70.5885 82.3958 70.224 82.125 69.7656C81.8542 69.3073 81.7188 68.8125 81.7188 68.2812V51.125C81.7188 50.3021 81.9219 49.5469 82.3281 48.8594C82.7448 48.1615 83.3021 47.6094 84 47.2031C84.6979 46.7865 85.4531 46.5781 86.2656 46.5781C86.9115 46.5781 87.526 46.7083 88.1094 46.9688C88.7031 47.2292 89.2135 47.5938 89.6406 48.0625C90.0781 48.5208 90.3958 49.0417 90.5938 49.625L94.3906 60.5C94.526 60.8542 94.6771 61.3594 94.8438 62.0156C95.0104 62.6719 95.1198 63.1927 95.1719 63.5781H95.5469C95.5885 63.2135 95.6927 62.7031 95.8594 62.0469C96.026 61.3906 96.1771 60.875 96.3125 60.5L100.125 49.625C100.323 49.0417 100.635 48.5208 101.062 48.0625C101.5 47.5938 102.01 47.2292 102.594 46.9688C103.188 46.7083 103.807 46.5781 104.453 46.5781C105.266 46.5781 106.021 46.7865 106.719 47.2031C107.417 47.6094 107.969 48.1615 108.375 48.8594C108.781 49.5469 108.984 50.3021 108.984 51.125V68.2812C108.984 68.8125 108.849 69.3073 108.578 69.7656C108.307 70.224 107.943 70.5885 107.484 70.8594C107.026 71.1198 106.526 71.25 105.984 71.25C105.443 71.25 104.943 71.1198 104.484 70.8594C104.036 70.5885 103.677 70.224 103.406 69.7656C103.135 69.3073 103 68.8125 103 68.2812V54.6875H102.812L102.562 55.9844C102.375 56.8802 102.104 57.8333 101.75 58.8438L98.1719 69.1094C97.9531 69.7135 97.5885 70.224 97.0781 70.6406C96.5677 71.0469 95.9948 71.25 95.3594 71.25C94.724 71.25 94.1458 71.0469 93.625 70.6406C93.1146 70.224 92.7552 69.7135 92.5469 69.1094L88.9531 58.8438C88.5677 57.6771 88.3021 56.724 88.1562 55.9844L87.9062 54.6875H87.7031V68.2812C87.7031 68.8125 87.5677 69.3073 87.2969 69.7656C87.026 70.2135 86.6615 70.5729 86.2031 70.8438C85.7552 71.1146 85.2656 71.25 84.7344 71.25ZM115.016 71C114.13 71 113.453 70.7708 112.984 70.3125C112.516 69.8438 112.281 69.1667 112.281 68.2812V49.5625C112.281 48.6771 112.516 48.0052 112.984 47.5469C113.453 47.0781 114.13 46.8438 115.016 46.8438H126.781C127.219 46.8438 127.625 46.9583 128 47.1875C128.385 47.4062 128.688 47.7083 128.906 48.0938C129.135 48.4688 129.25 48.8854 129.25 49.3438C129.25 49.7812 129.135 50.1875 128.906 50.5625C128.688 50.9375 128.385 51.2396 128 51.4688C127.625 51.6875 127.219 51.7969 126.781 51.7969H118.375V56.5H125.312C125.74 56.5 126.135 56.6094 126.5 56.8281C126.875 57.0469 127.172 57.3438 127.391 57.7188C127.609 58.0833 127.719 58.4792 127.719 58.9062C127.719 59.3438 127.609 59.75 127.391 60.125C127.172 60.5 126.875 60.7969 126.5 61.0156C126.135 61.2344 125.74 61.3438 125.312 61.3438H118.375V66.0469H127.422C127.859 66.0469 128.266 66.1615 128.641 66.3906C129.026 66.6094 129.328 66.9062 129.547 67.2812C129.776 67.6562 129.891 68.0625 129.891 68.5C129.891 68.9479 129.776 69.3646 129.547 69.75C129.328 70.1354 129.026 70.4427 128.641 70.6719C128.266 70.8906 127.859 71 127.422 71H115.016Z" fill="white"/>
</svg>
