<svg width="23" height="17" viewBox="0 0 23 17" fill="none" xmlns="http://www.w3.org/2000/svg">
<path d="M19.2937 3.47816L22.5337 0.0195402H16.9323L14.2232 2.89195C13.5276 3.63448 12.5025 3.84943 11.5872 3.45862C13.7289 5.74483 17.1703 5.74483 19.2937 3.47816Z" fill="url(#paint0_linear_104_6949)"/>
<path d="M11.6055 13.9713C12.5025 13.5805 13.5459 13.8149 14.2232 14.5379L16.5113 16.9805H22.1127L19.2937 13.9713C17.1703 11.7046 13.7289 11.7046 11.6055 13.9713Z" fill="url(#paint1_linear_104_6949)"/>
<path d="M6.02242 0.312644L5.78445 0.0586207C5.74784 0.0195402 5.72953 0 5.72953 0H0.0549157L0 0.0781609L7.88955 8.5L0.0549157 16.8632L0.128137 16.9414H5.78445L5.72953 17C5.74784 16.9805 5.76615 16.9609 5.78445 16.9414H5.80276L7.96277 14.6161C8.54854 14.0299 9.0977 13.346 9.64685 12.877C14.0584 8.94943 17.7195 8.6954 18.5798 8.6954C14.0584 8.51954 7.46853 1.83678 6.02242 0.312644Z" fill="url(#paint2_linear_104_6949)"/>
<path d="M18.5798 8.6954C18.6347 8.6954 18.7079 8.6954 18.7629 8.6954C18.7629 8.71494 18.7079 8.6954 18.5798 8.6954Z" fill="url(#paint3_linear_104_6949)"/>
<defs>
<linearGradient id="paint0_linear_104_6949" x1="4" y1="3.30271e-06" x2="24.4336" y2="7.05501" gradientUnits="userSpaceOnUse">
<stop stop-color="#05FFD2"/>
<stop offset="0.333333" stop-color="#217AFF"/>
<stop offset="0.645833" stop-color="#1A15FF"/>
<stop offset="1" stop-color="#FF008A"/>
</linearGradient>
<linearGradient id="paint1_linear_104_6949" x1="4" y1="3.30271e-06" x2="24.4336" y2="7.05501" gradientUnits="userSpaceOnUse">
<stop stop-color="#05FFD2"/>
<stop offset="0.333333" stop-color="#217AFF"/>
<stop offset="0.645833" stop-color="#1A15FF"/>
<stop offset="1" stop-color="#FF008A"/>
</linearGradient>
<linearGradient id="paint2_linear_104_6949" x1="4" y1="3.30271e-06" x2="24.4336" y2="7.05501" gradientUnits="userSpaceOnUse">
<stop stop-color="#05FFD2"/>
<stop offset="0.333333" stop-color="#217AFF"/>
<stop offset="0.645833" stop-color="#1A15FF"/>
<stop offset="1" stop-color="#FF008A"/>
</linearGradient>
<linearGradient id="paint3_linear_104_6949" x1="4" y1="3.30271e-06" x2="24.4336" y2="7.05501" gradientUnits="userSpaceOnUse">
<stop stop-color="#05FFD2"/>
<stop offset="0.333333" stop-color="#217AFF"/>
<stop offset="0.645833" stop-color="#1A15FF"/>
<stop offset="1" stop-color="#FF008A"/>
</linearGradient>
</defs>
</svg>
