<svg width="24" height="24" viewBox="0 0 24 24" fill="none" xmlns="http://www.w3.org/2000/svg">
<circle cx="2" cy="2" r="1" fill="url(#paint0_linear_43_108)"/>
<circle cx="2" cy="2" r="1" stroke="url(#paint1_linear_43_108)"/>
<circle cx="2" cy="7" r="1" fill="url(#paint2_linear_43_108)"/>
<circle cx="2" cy="7" r="1" stroke="url(#paint3_linear_43_108)"/>
<circle cx="2" cy="12" r="1.25" fill="url(#paint4_linear_43_108)" stroke="url(#paint5_linear_43_108)" stroke-width="0.5"/>
<circle cx="2" cy="17" r="1" fill="url(#paint6_linear_43_108)"/>
<circle cx="2" cy="17" r="1" stroke="url(#paint7_linear_43_108)"/>
<circle cx="2" cy="22" r="1" fill="url(#paint8_linear_43_108)"/>
<circle cx="2" cy="22" r="1" stroke="url(#paint9_linear_43_108)"/>
<circle cx="7" cy="2" r="1" fill="url(#paint10_linear_43_108)"/>
<circle cx="7" cy="2" r="1" stroke="url(#paint11_linear_43_108)"/>
<circle cx="7" cy="7" r="1" fill="url(#paint12_linear_43_108)"/>
<circle cx="7" cy="7" r="1" stroke="url(#paint13_linear_43_108)"/>
<circle cx="7" cy="12" r="1.5" fill="url(#paint14_linear_43_108)" stroke="url(#paint15_linear_43_108)"/>
<circle cx="7" cy="17" r="1" fill="url(#paint16_linear_43_108)"/>
<circle cx="7" cy="17" r="1" stroke="url(#paint17_linear_43_108)"/>
<circle cx="7" cy="22" r="1" fill="url(#paint18_linear_43_108)"/>
<circle cx="7" cy="22" r="1" stroke="url(#paint19_linear_43_108)"/>
<circle cx="12" cy="2" r="1.25" fill="url(#paint20_linear_43_108)" stroke="url(#paint21_linear_43_108)" stroke-width="0.5"/>
<circle cx="12" cy="7" r="1.5" fill="url(#paint22_linear_43_108)" stroke="url(#paint23_linear_43_108)"/>
<circle cx="12" cy="12" r="1" fill="url(#paint24_linear_43_108)"/>
<circle cx="12" cy="12" r="1" stroke="url(#paint25_linear_43_108)"/>
<circle cx="12" cy="17" r="1.5" fill="url(#paint26_linear_43_108)" stroke="url(#paint27_linear_43_108)"/>
<circle cx="12" cy="22" r="1.25" fill="url(#paint28_linear_43_108)" stroke="url(#paint29_linear_43_108)" stroke-width="0.5"/>
<circle cx="17" cy="2" r="1" fill="url(#paint30_linear_43_108)"/>
<circle cx="17" cy="2" r="1" stroke="url(#paint31_linear_43_108)"/>
<circle cx="17" cy="7" r="1" fill="url(#paint32_linear_43_108)"/>
<circle cx="17" cy="7" r="1" stroke="url(#paint33_linear_43_108)"/>
<circle cx="17" cy="12" r="1.5" fill="url(#paint34_linear_43_108)" stroke="url(#paint35_linear_43_108)"/>
<circle cx="17" cy="17" r="1" fill="url(#paint36_linear_43_108)"/>
<circle cx="17" cy="17" r="1" stroke="url(#paint37_linear_43_108)"/>
<circle cx="17" cy="22" r="1" fill="url(#paint38_linear_43_108)"/>
<circle cx="17" cy="22" r="1" stroke="url(#paint39_linear_43_108)"/>
<circle cx="22" cy="2" r="1" fill="url(#paint40_linear_43_108)"/>
<circle cx="22" cy="2" r="1" stroke="url(#paint41_linear_43_108)"/>
<circle cx="22" cy="7" r="1" fill="url(#paint42_linear_43_108)"/>
<circle cx="22" cy="7" r="1" stroke="url(#paint43_linear_43_108)"/>
<circle cx="22" cy="12" r="1.25" fill="url(#paint44_linear_43_108)" stroke="url(#paint45_linear_43_108)" stroke-width="0.5"/>
<circle cx="22" cy="17" r="1" fill="url(#paint46_linear_43_108)"/>
<circle cx="22" cy="17" r="1" stroke="url(#paint47_linear_43_108)"/>
<circle cx="22" cy="22" r="1" fill="url(#paint48_linear_43_108)"/>
<circle cx="22" cy="22" r="1" stroke="url(#paint49_linear_43_108)"/>
<defs>
<linearGradient id="paint0_linear_43_108" x1="2" y1="1" x2="2" y2="3" gradientUnits="userSpaceOnUse">
<stop stop-color="white"/>
<stop offset="1" stop-color="#1572FE"/>
</linearGradient>
<linearGradient id="paint1_linear_43_108" x1="2" y1="1" x2="2" y2="3" gradientUnits="userSpaceOnUse">
<stop stop-color="white"/>
<stop offset="1" stop-color="#1572FE"/>
</linearGradient>
<linearGradient id="paint2_linear_43_108" x1="2" y1="6" x2="2" y2="8" gradientUnits="userSpaceOnUse">
<stop stop-color="white"/>
<stop offset="1" stop-color="#1572FE"/>
</linearGradient>
<linearGradient id="paint3_linear_43_108" x1="2" y1="6" x2="2" y2="8" gradientUnits="userSpaceOnUse">
<stop stop-color="white"/>
<stop offset="1" stop-color="#1572FE"/>
</linearGradient>
<linearGradient id="paint4_linear_43_108" x1="2" y1="11" x2="2" y2="13" gradientUnits="userSpaceOnUse">
<stop stop-color="white"/>
<stop offset="1" stop-color="#1572FE"/>
</linearGradient>
<linearGradient id="paint5_linear_43_108" x1="2" y1="11" x2="2" y2="13" gradientUnits="userSpaceOnUse">
<stop stop-color="white"/>
<stop offset="1" stop-color="#1572FE"/>
</linearGradient>
<linearGradient id="paint6_linear_43_108" x1="2" y1="16" x2="2" y2="18" gradientUnits="userSpaceOnUse">
<stop stop-color="white"/>
<stop offset="1" stop-color="#1572FE"/>
</linearGradient>
<linearGradient id="paint7_linear_43_108" x1="2" y1="16" x2="2" y2="18" gradientUnits="userSpaceOnUse">
<stop stop-color="white"/>
<stop offset="1" stop-color="#1572FE"/>
</linearGradient>
<linearGradient id="paint8_linear_43_108" x1="2" y1="21" x2="2" y2="23" gradientUnits="userSpaceOnUse">
<stop stop-color="white"/>
<stop offset="1" stop-color="#1572FE"/>
</linearGradient>
<linearGradient id="paint9_linear_43_108" x1="2" y1="21" x2="2" y2="23" gradientUnits="userSpaceOnUse">
<stop stop-color="white"/>
<stop offset="1" stop-color="#1572FE"/>
</linearGradient>
<linearGradient id="paint10_linear_43_108" x1="7" y1="1" x2="7" y2="3" gradientUnits="userSpaceOnUse">
<stop stop-color="white"/>
<stop offset="1" stop-color="#1572FE"/>
</linearGradient>
<linearGradient id="paint11_linear_43_108" x1="7" y1="1" x2="7" y2="3" gradientUnits="userSpaceOnUse">
<stop stop-color="white"/>
<stop offset="1" stop-color="#1572FE"/>
</linearGradient>
<linearGradient id="paint12_linear_43_108" x1="7" y1="6" x2="7" y2="8" gradientUnits="userSpaceOnUse">
<stop stop-color="white"/>
<stop offset="1" stop-color="#1572FE"/>
</linearGradient>
<linearGradient id="paint13_linear_43_108" x1="7" y1="6" x2="7" y2="8" gradientUnits="userSpaceOnUse">
<stop stop-color="white"/>
<stop offset="1" stop-color="#1572FE"/>
</linearGradient>
<linearGradient id="paint14_linear_43_108" x1="7" y1="11" x2="7" y2="13" gradientUnits="userSpaceOnUse">
<stop stop-color="white"/>
<stop offset="1" stop-color="#1572FE"/>
</linearGradient>
<linearGradient id="paint15_linear_43_108" x1="7" y1="11" x2="7" y2="13" gradientUnits="userSpaceOnUse">
<stop stop-color="white"/>
<stop offset="1" stop-color="#1572FE"/>
</linearGradient>
<linearGradient id="paint16_linear_43_108" x1="7" y1="16" x2="7" y2="18" gradientUnits="userSpaceOnUse">
<stop stop-color="white"/>
<stop offset="1" stop-color="#1572FE"/>
</linearGradient>
<linearGradient id="paint17_linear_43_108" x1="7" y1="16" x2="7" y2="18" gradientUnits="userSpaceOnUse">
<stop stop-color="white"/>
<stop offset="1" stop-color="#1572FE"/>
</linearGradient>
<linearGradient id="paint18_linear_43_108" x1="7" y1="21" x2="7" y2="23" gradientUnits="userSpaceOnUse">
<stop stop-color="white"/>
<stop offset="1" stop-color="#1572FE"/>
</linearGradient>
<linearGradient id="paint19_linear_43_108" x1="7" y1="21" x2="7" y2="23" gradientUnits="userSpaceOnUse">
<stop stop-color="white"/>
<stop offset="1" stop-color="#1572FE"/>
</linearGradient>
<linearGradient id="paint20_linear_43_108" x1="12" y1="1" x2="12" y2="3" gradientUnits="userSpaceOnUse">
<stop stop-color="white"/>
<stop offset="1" stop-color="#1572FE"/>
</linearGradient>
<linearGradient id="paint21_linear_43_108" x1="12" y1="1" x2="12" y2="3" gradientUnits="userSpaceOnUse">
<stop stop-color="white"/>
<stop offset="1" stop-color="#1572FE"/>
</linearGradient>
<linearGradient id="paint22_linear_43_108" x1="12" y1="6" x2="12" y2="8" gradientUnits="userSpaceOnUse">
<stop stop-color="white"/>
<stop offset="1" stop-color="#1572FE"/>
</linearGradient>
<linearGradient id="paint23_linear_43_108" x1="12" y1="6" x2="12" y2="8" gradientUnits="userSpaceOnUse">
<stop stop-color="white"/>
<stop offset="1" stop-color="#1572FE"/>
</linearGradient>
<linearGradient id="paint24_linear_43_108" x1="12" y1="11" x2="12" y2="13" gradientUnits="userSpaceOnUse">
<stop stop-color="white"/>
<stop offset="1" stop-color="#1572FE"/>
</linearGradient>
<linearGradient id="paint25_linear_43_108" x1="12" y1="11" x2="12" y2="13" gradientUnits="userSpaceOnUse">
<stop stop-color="white"/>
<stop offset="1" stop-color="#1572FE"/>
</linearGradient>
<linearGradient id="paint26_linear_43_108" x1="12" y1="16" x2="12" y2="18" gradientUnits="userSpaceOnUse">
<stop stop-color="white"/>
<stop offset="1" stop-color="#1572FE"/>
</linearGradient>
<linearGradient id="paint27_linear_43_108" x1="12" y1="16" x2="12" y2="18" gradientUnits="userSpaceOnUse">
<stop stop-color="white"/>
<stop offset="1" stop-color="#1572FE"/>
</linearGradient>
<linearGradient id="paint28_linear_43_108" x1="12" y1="21" x2="12" y2="23" gradientUnits="userSpaceOnUse">
<stop stop-color="white"/>
<stop offset="1" stop-color="#1572FE"/>
</linearGradient>
<linearGradient id="paint29_linear_43_108" x1="12" y1="21" x2="12" y2="23" gradientUnits="userSpaceOnUse">
<stop stop-color="white"/>
<stop offset="1" stop-color="#1572FE"/>
</linearGradient>
<linearGradient id="paint30_linear_43_108" x1="17" y1="1" x2="17" y2="3" gradientUnits="userSpaceOnUse">
<stop stop-color="white"/>
<stop offset="1" stop-color="#1572FE"/>
</linearGradient>
<linearGradient id="paint31_linear_43_108" x1="17" y1="1" x2="17" y2="3" gradientUnits="userSpaceOnUse">
<stop stop-color="white"/>
<stop offset="1" stop-color="#1572FE"/>
</linearGradient>
<linearGradient id="paint32_linear_43_108" x1="17" y1="6" x2="17" y2="8" gradientUnits="userSpaceOnUse">
<stop stop-color="white"/>
<stop offset="1" stop-color="#1572FE"/>
</linearGradient>
<linearGradient id="paint33_linear_43_108" x1="17" y1="6" x2="17" y2="8" gradientUnits="userSpaceOnUse">
<stop stop-color="white"/>
<stop offset="1" stop-color="#1572FE"/>
</linearGradient>
<linearGradient id="paint34_linear_43_108" x1="17" y1="11" x2="17" y2="13" gradientUnits="userSpaceOnUse">
<stop stop-color="white"/>
<stop offset="1" stop-color="#1572FE"/>
</linearGradient>
<linearGradient id="paint35_linear_43_108" x1="17" y1="11" x2="17" y2="13" gradientUnits="userSpaceOnUse">
<stop stop-color="white"/>
<stop offset="1" stop-color="#1572FE"/>
</linearGradient>
<linearGradient id="paint36_linear_43_108" x1="17" y1="16" x2="17" y2="18" gradientUnits="userSpaceOnUse">
<stop stop-color="white"/>
<stop offset="1" stop-color="#1572FE"/>
</linearGradient>
<linearGradient id="paint37_linear_43_108" x1="17" y1="16" x2="17" y2="18" gradientUnits="userSpaceOnUse">
<stop stop-color="white"/>
<stop offset="1" stop-color="#1572FE"/>
</linearGradient>
<linearGradient id="paint38_linear_43_108" x1="17" y1="21" x2="17" y2="23" gradientUnits="userSpaceOnUse">
<stop stop-color="white"/>
<stop offset="1" stop-color="#1572FE"/>
</linearGradient>
<linearGradient id="paint39_linear_43_108" x1="17" y1="21" x2="17" y2="23" gradientUnits="userSpaceOnUse">
<stop stop-color="white"/>
<stop offset="1" stop-color="#1572FE"/>
</linearGradient>
<linearGradient id="paint40_linear_43_108" x1="22" y1="1" x2="22" y2="3" gradientUnits="userSpaceOnUse">
<stop stop-color="white"/>
<stop offset="1" stop-color="#1572FE"/>
</linearGradient>
<linearGradient id="paint41_linear_43_108" x1="22" y1="1" x2="22" y2="3" gradientUnits="userSpaceOnUse">
<stop stop-color="white"/>
<stop offset="1" stop-color="#1572FE"/>
</linearGradient>
<linearGradient id="paint42_linear_43_108" x1="22" y1="6" x2="22" y2="8" gradientUnits="userSpaceOnUse">
<stop stop-color="white"/>
<stop offset="1" stop-color="#1572FE"/>
</linearGradient>
<linearGradient id="paint43_linear_43_108" x1="22" y1="6" x2="22" y2="8" gradientUnits="userSpaceOnUse">
<stop stop-color="white"/>
<stop offset="1" stop-color="#1572FE"/>
</linearGradient>
<linearGradient id="paint44_linear_43_108" x1="22" y1="11" x2="22" y2="13" gradientUnits="userSpaceOnUse">
<stop stop-color="white"/>
<stop offset="1" stop-color="#1572FE"/>
</linearGradient>
<linearGradient id="paint45_linear_43_108" x1="22" y1="11" x2="22" y2="13" gradientUnits="userSpaceOnUse">
<stop stop-color="white"/>
<stop offset="1" stop-color="#1572FE"/>
</linearGradient>
<linearGradient id="paint46_linear_43_108" x1="22" y1="16" x2="22" y2="18" gradientUnits="userSpaceOnUse">
<stop stop-color="white"/>
<stop offset="1" stop-color="#1572FE"/>
</linearGradient>
<linearGradient id="paint47_linear_43_108" x1="22" y1="16" x2="22" y2="18" gradientUnits="userSpaceOnUse">
<stop stop-color="white"/>
<stop offset="1" stop-color="#1572FE"/>
</linearGradient>
<linearGradient id="paint48_linear_43_108" x1="22" y1="21" x2="22" y2="23" gradientUnits="userSpaceOnUse">
<stop stop-color="white"/>
<stop offset="1" stop-color="#1572FE"/>
</linearGradient>
<linearGradient id="paint49_linear_43_108" x1="22" y1="21" x2="22" y2="23" gradientUnits="userSpaceOnUse">
<stop stop-color="white"/>
<stop offset="1" stop-color="#1572FE"/>
</linearGradient>
</defs>
</svg>
