<svg width="58" height="58" viewBox="0 0 58 58" fill="none" xmlns="http://www.w3.org/2000/svg">
<path d="M29 58C45.0163 58 58 45.0163 58 29C58 12.9837 45.0163 0 29 0C12.9837 0 0 12.9837 0 29C0 45.0163 12.9837 58 29 58Z" fill="url(#paint0_linear_223_246)"/>
<path d="M13.7388 42.7022C12.4555 42.7126 11.1998 42.3296 10.1406 41.6049C8.61817 40.5488 7.59405 38.4045 7.58948 36.2969C7.58495 35.257 7.83864 34.2322 8.32779 33.3146C8.81695 32.3969 9.52626 31.615 10.3921 31.0391C10.598 30.8874 10.8321 30.7785 11.0807 30.7185C11.3293 30.6586 11.5874 30.6489 11.8398 30.69C12.0922 30.7312 12.3338 30.8223 12.5505 30.9581C12.7672 31.0939 12.9546 31.2717 13.1017 31.4809C13.2487 31.6901 13.3525 31.9265 13.407 32.1764C13.4614 32.4262 13.4654 32.6845 13.4187 32.9359C13.3721 33.1873 13.2756 33.4269 13.1351 33.6405C12.9945 33.8542 12.8127 34.0376 12.6004 34.18C12.2417 34.4013 11.9458 34.7108 11.7409 35.079C11.536 35.4472 11.4289 35.8618 11.4299 36.2831C11.4288 36.6866 11.5092 37.0862 11.6664 37.4578C11.8235 37.8294 12.0541 38.1654 12.3443 38.4457C12.6232 38.6423 14.1274 39.5201 16.3722 37.8193C17.6112 36.9049 26.554 29.0091 32.4747 23.8017C36.178 20.5419 38.2902 18.6811 38.6972 18.3473C40.1968 17.1129 42.7159 15.8876 45.2945 16.1619C46.0782 16.2345 46.839 16.4656 47.5307 16.8413C48.2223 17.217 48.8303 17.7294 49.3178 18.3473C49.4748 18.5448 49.5914 18.7714 49.6609 19.0139C49.7303 19.2565 49.7513 19.5104 49.7227 19.7611C49.694 20.0118 49.6163 20.2544 49.4938 20.475C49.3714 20.6957 49.2068 20.8901 49.0092 21.0471C48.8117 21.2041 48.5852 21.3206 48.3426 21.3901C48.1 21.4595 47.8461 21.4805 47.5954 21.4519C47.3447 21.4232 47.1021 21.3455 46.8815 21.2231C46.6609 21.1007 46.4665 20.936 46.3095 20.7385C46.1396 20.5201 45.9256 20.34 45.6813 20.21C45.4371 20.08 45.1682 20.003 44.8922 19.9841C43.5226 19.9502 42.1889 20.4241 41.1477 21.3145C40.7683 21.6254 38.1074 23.9708 35.0213 26.6866C26.8329 33.892 19.9338 39.9453 18.6994 40.8825C17.293 42.0218 15.5482 42.6618 13.7388 42.7022Z" fill="white"/>
<path d="M33.5125 41.4723C32.3938 41.4649 31.2943 41.1806 30.3122 40.6448C28.4331 39.6436 24.4509 36.3929 27.9667 27.7839C30.0561 22.6587 29.5898 20.4687 29.128 19.6366C28.9086 19.2389 28.4651 18.6811 27.1621 18.4479C24.1766 17.9176 21.1316 19.4675 20.0664 22.0552C19.6092 23.157 19.6366 24.1446 20.1258 24.6932C20.5373 25.1504 21.2734 25.2967 22.1009 25.0681C22.3441 25.0012 22.598 24.9828 22.8483 25.014C23.0986 25.0452 23.3402 25.1254 23.5595 25.25C23.7788 25.3746 23.9714 25.5412 24.1263 25.7402C24.2812 25.9392 24.3954 26.1668 24.4623 26.41C24.5293 26.6531 24.5477 26.9071 24.5164 27.1574C24.4852 27.4077 24.4051 27.6493 24.2804 27.8686C24.1558 28.0879 23.9893 28.2805 23.7902 28.4354C23.5912 28.5903 23.3636 28.7045 23.1204 28.7714C20.8345 29.3978 18.6536 28.8263 17.25 27.2398C15.7687 25.571 15.4944 23.0885 16.5139 20.6013C18.2879 16.3037 23.0427 13.8074 27.8433 14.6669C30.5407 15.1469 31.862 16.6283 32.5021 17.785C33.9331 20.3864 33.6131 24.1309 31.5466 29.2606C30.3716 32.1455 29.5166 35.8762 32.1409 37.2753C32.8267 37.6365 34.8841 38.7429 38.5737 33.9835C38.7139 33.7534 38.9009 33.5555 39.1226 33.4024C39.3443 33.2494 39.5957 33.1448 39.8605 33.0952C40.1253 33.0457 40.3975 33.0525 40.6596 33.1151C40.9216 33.1777 41.1675 33.2947 41.3813 33.4585C41.5951 33.6224 41.7721 33.8294 41.9007 34.0661C42.0293 34.3028 42.1066 34.5639 42.1277 34.8324C42.1488 35.101 42.1132 35.371 42.0231 35.6248C41.933 35.8787 41.7905 36.1108 41.6049 36.306C38.5554 40.2333 35.7848 41.4723 33.5125 41.4723Z" fill="white"/>
<defs>
<linearGradient id="paint0_linear_223_246" x1="8.49472" y1="8.49472" x2="49.5053" y2="49.5053" gradientUnits="userSpaceOnUse">
<stop stop-color="#FF00BB"/>
<stop offset="1" stop-color="#0C31E8"/>
</linearGradient>
</defs>
</svg>
