<svg width="89" height="17" viewBox="0 0 89 17" fill="none" xmlns="http://www.w3.org/2000/svg">
<path d="M28.4098 2.61841L32.9128 8.05059L28.2999 13.6196H30.881L34.2125 9.59427L37.5441 13.6196H40.1434L31.0091 2.61841H28.4098Z" fill="white"/>
<path d="M39.9969 2.61841H37.4159L35.3291 5.1391L36.6288 6.68278L39.9969 2.61841Z" fill="white"/>
<path d="M51.2181 3.59542C50.4492 2.95059 49.3143 2.61841 47.8499 2.61841H41.3149V13.6196H43.4383V10.2196H47.9231C49.3692 10.2196 50.4859 9.88737 51.2547 9.24255C52.0052 8.59772 52.3896 7.64025 52.3896 6.42875C52.3713 5.19772 51.9869 4.25979 51.2181 3.59542ZM47.795 8.07013H43.4383V4.76783H47.795C49.296 4.76783 50.2296 5.0414 50.2296 6.40921C50.2296 7.77703 49.296 8.07013 47.795 8.07013Z" fill="white"/>
<path d="M57.2954 2.61841L51.8771 13.6196H54.1286L58.3937 4.70921L62.4392 13.6196H64.709L59.547 2.61841H57.2954Z" fill="white"/>
<path d="M66.5945 3.8298C65.4595 4.82635 64.8555 6.29187 64.8555 8.07003C64.8555 9.84819 65.4595 11.3137 66.6128 12.3103C67.766 13.3068 69.4684 13.8344 71.5369 13.8344C73.4223 13.8344 74.8867 13.385 76.461 12.3493V9.96543C74.8318 11.0792 73.2027 11.6459 71.6101 11.6459C70.1091 11.6459 68.9375 11.3333 68.1504 10.708C67.3633 10.0827 66.9606 9.20337 66.9606 8.07003C66.9606 6.9367 67.3633 6.03785 68.1504 5.41256C68.9558 4.78727 70.1091 4.45509 71.6101 4.45509C73.221 4.45509 74.8684 5.02176 76.461 6.15509V3.79072C74.9233 2.77463 73.3125 2.30566 71.3904 2.30566C69.3952 2.30566 67.7294 2.83325 66.5945 3.8298Z" fill="white"/>
<path d="M89 4.72875V2.61841H78.566V13.6196H89V11.5288H80.6711V9.14485H88.4692V7.09312H80.6711V4.72875H89Z" fill="white"/>
<path d="M19.2937 3.47816L22.5337 0.0195402H16.9323L14.2232 2.89195C13.5276 3.63448 12.5025 3.84943 11.5872 3.45862C13.7289 5.74483 17.1703 5.74483 19.2937 3.47816Z" fill="url(#paint0_linear_104_6941)"/>
<path d="M11.6055 13.9713C12.5025 13.5805 13.5459 13.8149 14.2232 14.5379L16.5113 16.9805H22.1127L19.2937 13.9713C17.1703 11.7046 13.7289 11.7046 11.6055 13.9713Z" fill="url(#paint1_linear_104_6941)"/>
<path d="M6.02242 0.312644L5.78445 0.0586207C5.74784 0.0195402 5.72953 0 5.72953 0H0.0549157L0 0.0781609L7.88955 8.5L0.0549157 16.8632L0.128137 16.9414H5.78445L5.72953 17C5.74784 16.9805 5.76615 16.9609 5.78445 16.9414H5.80276L7.96277 14.6161C8.54854 14.0299 9.0977 13.346 9.64685 12.877C14.0584 8.94943 17.7195 8.6954 18.5798 8.6954C14.0584 8.51954 7.46853 1.83678 6.02242 0.312644Z" fill="url(#paint2_linear_104_6941)"/>
<path d="M18.5798 8.6954C18.6347 8.6954 18.7079 8.6954 18.7629 8.6954C18.7629 8.71494 18.7079 8.6954 18.5798 8.6954Z" fill="url(#paint3_linear_104_6941)"/>
<defs>
<linearGradient id="paint0_linear_104_6941" x1="4" y1="3.30271e-06" x2="24.4336" y2="7.05501" gradientUnits="userSpaceOnUse">
<stop stop-color="#05FFD2"/>
<stop offset="0.333333" stop-color="#217AFF"/>
<stop offset="0.645833" stop-color="#1A15FF"/>
<stop offset="1" stop-color="#FF008A"/>
</linearGradient>
<linearGradient id="paint1_linear_104_6941" x1="4" y1="3.30271e-06" x2="24.4336" y2="7.05501" gradientUnits="userSpaceOnUse">
<stop stop-color="#05FFD2"/>
<stop offset="0.333333" stop-color="#217AFF"/>
<stop offset="0.645833" stop-color="#1A15FF"/>
<stop offset="1" stop-color="#FF008A"/>
</linearGradient>
<linearGradient id="paint2_linear_104_6941" x1="4" y1="3.30271e-06" x2="24.4336" y2="7.05501" gradientUnits="userSpaceOnUse">
<stop stop-color="#05FFD2"/>
<stop offset="0.333333" stop-color="#217AFF"/>
<stop offset="0.645833" stop-color="#1A15FF"/>
<stop offset="1" stop-color="#FF008A"/>
</linearGradient>
<linearGradient id="paint3_linear_104_6941" x1="4" y1="3.30271e-06" x2="24.4336" y2="7.05501" gradientUnits="userSpaceOnUse">
<stop stop-color="#05FFD2"/>
<stop offset="0.333333" stop-color="#217AFF"/>
<stop offset="0.645833" stop-color="#1A15FF"/>
<stop offset="1" stop-color="#FF008A"/>
</linearGradient>
</defs>
</svg>
