<svg width="704" height="37" viewBox="0 0 704 37" fill="none" xmlns="http://www.w3.org/2000/svg">
<g filter="url(#filter0_d_3_14)">
<path d="M55.392 29C60.16 29 64.032 25.128 64.032 20.392C64.032 15.624 60.16 11.752 55.392 11.752H12.608C11.392 11.752 10.432 10.76 10.432 9.544C10.432 8.328 11.392 7.368 12.608 7.368H63.968V0.935999H12.608C7.872 0.935999 4 4.808 4 9.544C4 14.312 7.872 18.184 12.608 18.184H55.392C56.608 18.184 57.6 19.176 57.6 20.392C57.6 21.608 56.608 22.568 55.392 22.568H4V29H55.392ZM121.081 29C125.817 29 129.657 25.16 129.657 20.424V1.128H123.225V20.424C123.225 21.608 122.265 22.568 121.081 22.568H78.201C77.017 22.568 76.057 21.608 76.057 20.424V1.128H69.625V20.424C69.625 25.16 73.465 29 78.201 29H121.081ZM194.258 29V22.568H154.546V18.248H186.642C191.41 18.248 195.282 14.376 195.282 9.608V9.448C195.282 7.208 194.386 5.064 192.786 3.464C191.186 1.864 189.074 0.999998 186.802 0.999998H140.594C137.65 0.999998 135.25 3.4 135.25 6.344V29H141.682V7.432H186.802C187.346 7.432 187.858 7.624 188.242 8.008C188.626 8.392 188.85 8.904 188.85 9.448V9.608C188.85 10.824 187.858 11.816 186.642 11.816H153.458C150.514 11.816 148.114 14.216 148.114 17.192V23.656C148.114 26.6 150.514 29 153.458 29H194.258ZM259.851 18.376V11.944H210.507V18.376H259.851ZM207.307 29V7.56H259.851V1.128H206.219C203.275 1.128 200.875 3.528 200.875 6.472V29H207.307ZM288.606 7.656L315.198 7.592V29H321.63V7.56L348.222 7.528V1.064L321.63 1.128V1.096H315.198V1.16L288.606 1.224V7.656ZM367.745 7.56H399.905C404.065 7.56 407.425 10.952 407.425 15.08C407.425 19.208 404.065 22.568 399.905 22.568H367.745C363.617 22.568 360.257 19.208 360.257 15.08C360.257 10.952 363.617 7.56 367.745 7.56ZM399.905 29C407.617 29 413.857 22.76 413.857 15.08C413.857 7.4 407.617 1.128 399.905 1.128H367.745C360.065 1.128 353.825 7.4 353.825 15.08C353.825 22.76 360.065 29 367.745 29H399.905ZM502.587 18.408L502.619 11.976L456.539 11.848V18.28L502.587 18.408ZM502.587 29L502.619 22.568L456.539 22.472C452.411 22.472 449.051 19.112 449.051 14.984C449.051 10.824 452.411 7.464 456.539 7.464L502.587 7.56L502.619 1.128L456.539 1.032C448.859 1.032 442.619 7.272 442.619 14.984C442.619 22.664 448.859 28.904 456.539 28.904L502.587 29ZM561.812 29H568.244V6.472C568.244 3.528 565.844 1.128 562.868 1.128H513.556C510.612 1.128 508.212 3.528 508.212 6.472V29H514.644V7.56H561.812V13.032H518.932V19.464H561.812V29ZM632.846 29V22.568H593.134V18.248H625.23C629.998 18.248 633.87 14.376 633.87 9.608V9.448C633.87 7.208 632.974 5.064 631.374 3.464C629.774 1.864 627.662 0.999998 625.39 0.999998H579.182C576.238 0.999998 573.838 3.4 573.838 6.344V29H580.27V7.432H625.39C625.934 7.432 626.446 7.624 626.83 8.008C627.214 8.392 627.438 8.904 627.438 9.448V9.608C627.438 10.824 626.446 11.816 625.23 11.816H592.046C589.102 11.816 586.702 14.216 586.702 17.192V23.656C586.702 26.6 589.102 29 592.046 29H632.846ZM694.119 29C695.079 29 696.039 28.744 696.903 28.232C698.535 27.24 699.495 25.544 699.495 23.656V0.999998H693.063V21.992L647.175 1.416C645.543 0.615999 643.623 0.679998 642.023 1.64C640.423 2.632 639.463 4.36 639.463 6.248V28.904H645.895V7.88L691.751 28.456C692.519 28.84 693.319 29 694.119 29Z" fill="white"/>
<path d="M63.968 7.368V8.868H65.468V7.368H63.968ZM63.968 0.935999H65.468V-0.564001H63.968V0.935999ZM4 22.568V21.068H2.5V22.568H4ZM4 29H2.5V30.5H4V29ZM55.392 30.5C60.9848 30.5 65.532 25.96 65.532 20.392H62.532C62.532 24.296 59.3352 27.5 55.392 27.5V30.5ZM65.532 20.392C65.532 14.7956 60.9884 10.252 55.392 10.252V13.252C59.3316 13.252 62.532 16.4524 62.532 20.392H65.532ZM55.392 10.252H12.608V13.252H55.392V10.252ZM12.608 10.252C12.2489 10.252 11.932 9.96028 11.932 9.544H8.932C8.932 11.5597 10.5351 13.252 12.608 13.252V10.252ZM11.932 9.544C11.932 9.15643 12.2204 8.868 12.608 8.868V5.868C10.5636 5.868 8.932 7.49957 8.932 9.544H11.932ZM12.608 8.868H63.968V5.868H12.608V8.868ZM65.468 7.368V0.935999H62.468V7.368H65.468ZM63.968 -0.564001H12.608V2.436H63.968V-0.564001ZM12.608 -0.564001C7.04357 -0.564001 2.5 3.97957 2.5 9.544H5.5C5.5 5.63643 8.70043 2.436 12.608 2.436V-0.564001ZM2.5 9.544C2.5 15.1368 7.03995 19.684 12.608 19.684V16.684C8.70405 16.684 5.5 13.4872 5.5 9.544H2.5ZM12.608 19.684H55.392V16.684H12.608V19.684ZM55.392 19.684C55.7796 19.684 56.1 20.0044 56.1 20.392H59.1C59.1 18.3476 57.4364 16.684 55.392 16.684V19.684ZM56.1 20.392C56.1 20.7511 55.8083 21.068 55.392 21.068V24.068C57.4077 24.068 59.1 22.4649 59.1 20.392H56.1ZM55.392 21.068H4V24.068H55.392V21.068ZM2.5 22.568V29H5.5V22.568H2.5ZM4 30.5H55.392V27.5H4V30.5ZM129.657 1.128H131.157V-0.372002H129.657V1.128ZM123.225 1.128V-0.372002H121.725V1.128H123.225ZM76.057 1.128H77.557V-0.372002H76.057V1.128ZM69.625 1.128V-0.372002H68.125V1.128H69.625ZM121.081 30.5C126.645 30.5 131.157 25.9884 131.157 20.424H128.157C128.157 24.3316 124.989 27.5 121.081 27.5V30.5ZM131.157 20.424V1.128H128.157V20.424H131.157ZM129.657 -0.372002H123.225V2.628H129.657V-0.372002ZM121.725 1.128V20.424H124.725V1.128H121.725ZM121.725 20.424C121.725 20.7796 121.437 21.068 121.081 21.068V24.068C123.093 24.068 124.725 22.4364 124.725 20.424H121.725ZM121.081 21.068H78.201V24.068H121.081V21.068ZM78.201 21.068C77.8454 21.068 77.557 20.7796 77.557 20.424H74.557C74.557 22.4364 76.1886 24.068 78.201 24.068V21.068ZM77.557 20.424V1.128H74.557V20.424H77.557ZM76.057 -0.372002H69.625V2.628H76.057V-0.372002ZM68.125 1.128V20.424H71.125V1.128H68.125ZM68.125 20.424C68.125 25.9884 72.6366 30.5 78.201 30.5V27.5C74.2934 27.5 71.125 24.3316 71.125 20.424H68.125ZM78.201 30.5H121.081V27.5H78.201V30.5ZM194.258 29V30.5H195.758V29H194.258ZM194.258 22.568H195.758V21.068H194.258V22.568ZM154.546 22.568H153.046V24.068H154.546V22.568ZM154.546 18.248V16.748H153.046V18.248H154.546ZM192.786 3.464L193.847 2.40334V2.40334L192.786 3.464ZM135.25 29H133.75V30.5H135.25V29ZM141.682 29V30.5H143.182V29H141.682ZM141.682 7.432V5.932H140.182V7.432H141.682ZM188.242 8.008L189.303 6.94734V6.94734L188.242 8.008ZM195.758 29V22.568H192.758V29H195.758ZM194.258 21.068H154.546V24.068H194.258V21.068ZM156.046 22.568V18.248H153.046V22.568H156.046ZM154.546 19.748H186.642V16.748H154.546V19.748ZM186.642 19.748C192.238 19.748 196.782 15.2044 196.782 9.608H193.782C193.782 13.5476 190.582 16.748 186.642 16.748V19.748ZM196.782 9.608V9.448H193.782V9.608H196.782ZM196.782 9.448C196.782 6.80445 195.724 4.28057 193.847 2.40334L191.725 4.52466C193.048 5.84743 193.782 7.61154 193.782 9.448H196.782ZM193.847 2.40334C191.961 0.517932 189.466 -0.500002 186.802 -0.500002V2.5C188.682 2.5 190.411 3.21006 191.725 4.52466L193.847 2.40334ZM186.802 -0.500002H140.594V2.5H186.802V-0.500002ZM140.594 -0.500002C136.822 -0.500002 133.75 2.57157 133.75 6.344H136.75C136.75 4.22843 138.478 2.5 140.594 2.5V-0.500002ZM133.75 6.344V29H136.75V6.344H133.75ZM135.25 30.5H141.682V27.5H135.25V30.5ZM143.182 29V7.432H140.182V29H143.182ZM141.682 8.932H186.802V5.932H141.682V8.932ZM186.802 8.932C186.988 8.932 187.105 8.99271 187.181 9.06866L189.303 6.94734C188.611 6.25529 187.704 5.932 186.802 5.932V8.932ZM187.181 9.06866C187.3 9.18718 187.35 9.32366 187.35 9.448H190.35C190.35 8.48434 189.952 7.59682 189.303 6.94734L187.181 9.06866ZM187.35 9.448V9.608H190.35V9.448H187.35ZM187.35 9.608C187.35 9.99557 187.03 10.316 186.642 10.316V13.316C188.686 13.316 190.35 11.6524 190.35 9.608H187.35ZM186.642 10.316H153.458V13.316H186.642V10.316ZM153.458 10.316C149.68 10.316 146.614 13.3934 146.614 17.192H149.614C149.614 15.0386 151.348 13.316 153.458 13.316V10.316ZM146.614 17.192V23.656H149.614V17.192H146.614ZM146.614 23.656C146.614 27.4284 149.686 30.5 153.458 30.5V27.5C151.342 27.5 149.614 25.7716 149.614 23.656H146.614ZM153.458 30.5H194.258V27.5H153.458V30.5ZM259.851 18.376V19.876H261.351V18.376H259.851ZM259.851 11.944H261.351V10.444H259.851V11.944ZM210.507 11.944V10.444H209.007V11.944H210.507ZM210.507 18.376H209.007V19.876H210.507V18.376ZM207.307 29V30.5H208.807V29H207.307ZM207.307 7.56V6.06H205.807V7.56H207.307ZM259.851 7.56V9.06H261.351V7.56H259.851ZM259.851 1.128H261.351V-0.372002H259.851V1.128ZM200.875 29H199.375V30.5H200.875V29ZM261.351 18.376V11.944H258.351V18.376H261.351ZM259.851 10.444H210.507V13.444H259.851V10.444ZM209.007 11.944V18.376H212.007V11.944H209.007ZM210.507 19.876H259.851V16.876H210.507V19.876ZM208.807 29V7.56H205.807V29H208.807ZM207.307 9.06H259.851V6.06H207.307V9.06ZM261.351 7.56V1.128H258.351V7.56H261.351ZM259.851 -0.372002H206.219V2.628H259.851V-0.372002ZM206.219 -0.372002C202.447 -0.372002 199.375 2.69957 199.375 6.472H202.375C202.375 4.35643 204.103 2.628 206.219 2.628V-0.372002ZM199.375 6.472V29H202.375V6.472H199.375ZM200.875 30.5H207.307V27.5H200.875V30.5ZM288.606 7.656H287.106V9.15961L288.61 9.15599L288.606 7.656ZM315.198 7.592H316.698V6.08838L315.195 6.092L315.198 7.592ZM315.198 29H313.698V30.5H315.198V29ZM321.63 29V30.5H323.13V29H321.63ZM321.63 7.56L321.628 6.06L320.13 6.0618V7.56H321.63ZM348.222 7.528L348.224 9.028L349.722 9.0262V7.528H348.222ZM348.222 1.064H349.722V-0.439615L348.219 -0.435996L348.222 1.064ZM321.63 1.128H320.13V2.63161L321.634 2.62799L321.63 1.128ZM321.63 1.096H323.13V-0.404001H321.63V1.096ZM315.198 1.096V-0.404001H313.698V1.096H315.198ZM315.198 1.16L315.202 2.65999L316.698 2.65639V1.16H315.198ZM288.606 1.224L288.603 -0.275997L287.106 -0.272395V1.224H288.606ZM288.61 9.15599L315.202 9.09199L315.195 6.092L288.603 6.156L288.61 9.15599ZM313.698 7.592V29H316.698V7.592H313.698ZM315.198 30.5H321.63V27.5H315.198V30.5ZM323.13 29V7.56H320.13V29H323.13ZM321.632 9.06L348.224 9.028L348.22 6.028L321.628 6.06L321.632 9.06ZM349.722 7.528V1.064H346.722V7.528H349.722ZM348.219 -0.435996L321.627 -0.371997L321.634 2.62799L348.226 2.56399L348.219 -0.435996ZM323.13 1.128V1.096H320.13V1.128H323.13ZM321.63 -0.404001H315.198V2.596H321.63V-0.404001ZM313.698 1.096V1.16H316.698V1.096H313.698ZM315.195 -0.339998L288.603 -0.275997L288.61 2.72399L315.202 2.65999L315.195 -0.339998ZM287.106 1.224V7.656H290.106V1.224H287.106ZM367.745 9.06H399.905V6.06H367.745V9.06ZM399.905 9.06C403.232 9.06 405.925 11.7763 405.925 15.08H408.925C408.925 10.1277 404.898 6.06 399.905 6.06V9.06ZM405.925 15.08C405.925 18.3754 403.241 21.068 399.905 21.068V24.068C404.889 24.068 408.925 20.0406 408.925 15.08H405.925ZM399.905 21.068H367.745V24.068H399.905V21.068ZM367.745 21.068C364.445 21.068 361.757 18.3796 361.757 15.08H358.757C358.757 20.0364 362.789 24.068 367.745 24.068V21.068ZM361.757 15.08C361.757 11.7721 364.454 9.06 367.745 9.06V6.06C362.78 6.06 358.757 10.1319 358.757 15.08H361.757ZM399.905 30.5C408.443 30.5 415.357 23.5907 415.357 15.08H412.357C412.357 21.9293 406.791 27.5 399.905 27.5V30.5ZM415.357 15.08C415.357 6.57381 408.448 -0.372002 399.905 -0.372002V2.628C406.786 2.628 412.357 8.22619 412.357 15.08H415.357ZM399.905 -0.372002H367.745V2.628H399.905V-0.372002ZM367.745 -0.372002C359.232 -0.372002 352.325 6.57606 352.325 15.08H355.325C355.325 8.22394 360.898 2.628 367.745 2.628V-0.372002ZM352.325 15.08C352.325 23.5884 359.237 30.5 367.745 30.5V27.5C360.893 27.5 355.325 21.9316 355.325 15.08H352.325ZM367.745 30.5H399.905V27.5H367.745V30.5ZM502.587 18.408L502.583 19.908L504.079 19.9122L504.087 18.4155L502.587 18.408ZM502.619 11.976L504.119 11.9835L504.126 10.4802L502.623 10.476L502.619 11.976ZM456.539 11.848L456.543 10.348L455.039 10.3438V11.848H456.539ZM456.539 18.28H455.039V19.7758L456.535 19.78L456.539 18.28ZM502.587 29L502.584 30.5L504.079 30.5031L504.087 29.0075L502.587 29ZM502.619 22.568L504.119 22.5755L504.126 21.0711L502.622 21.068L502.619 22.568ZM456.539 22.472L456.542 20.972H456.539V22.472ZM456.539 7.464L456.542 5.964H456.539V7.464ZM502.587 7.56L502.584 9.06L504.079 9.06311L504.087 7.56746L502.587 7.56ZM502.619 1.128L504.119 1.13546L504.126 -0.368864L502.622 -0.371998L502.619 1.128ZM456.539 1.032L456.542 -0.468H456.539V1.032ZM456.539 28.904L456.542 27.404H456.539V28.904ZM504.087 18.4155L504.119 11.9835L501.119 11.9685L501.087 18.4005L504.087 18.4155ZM502.623 10.476L456.543 10.348L456.535 13.348L502.615 13.476L502.623 10.476ZM455.039 11.848V18.28H458.039V11.848H455.039ZM456.535 19.78L502.583 19.908L502.591 16.908L456.543 16.78L456.535 19.78ZM504.087 29.0075L504.119 22.5755L501.119 22.5605L501.087 28.9925L504.087 29.0075ZM502.622 21.068L456.542 20.972L456.536 23.972L502.616 24.068L502.622 21.068ZM456.539 20.972C453.239 20.972 450.551 18.2836 450.551 14.984H447.551C447.551 19.9404 451.582 23.972 456.539 23.972V20.972ZM450.551 14.984C450.551 11.6483 453.243 8.964 456.539 8.964V5.964C451.578 5.964 447.551 9.99974 447.551 14.984H450.551ZM456.536 8.964L502.584 9.06L502.59 6.06L456.542 5.964L456.536 8.964ZM504.087 7.56746L504.119 1.13546L501.119 1.12054L501.087 7.55254L504.087 7.56746ZM502.622 -0.371998L456.542 -0.467997L456.536 2.532L502.616 2.628L502.622 -0.371998ZM456.539 -0.468C448.028 -0.468 441.119 6.44582 441.119 14.984H444.119C444.119 8.09818 449.689 2.532 456.539 2.532V-0.468ZM441.119 14.984C441.119 23.4924 448.03 30.404 456.539 30.404V27.404C449.687 27.404 444.119 21.8356 444.119 14.984H441.119ZM456.536 30.404L502.584 30.5L502.59 27.5L456.542 27.404L456.536 30.404ZM561.812 29H560.312V30.5H561.812V29ZM568.245 29V30.5H569.745V29H568.245ZM508.212 29H506.712V30.5H508.212V29ZM514.645 29V30.5H516.144V29H514.645ZM514.645 7.56V6.06H513.145V7.56H514.645ZM561.812 7.56H563.312V6.06H561.812V7.56ZM561.812 13.032V14.532H563.312V13.032H561.812ZM518.932 13.032V11.532H517.432V13.032H518.932ZM518.932 19.464H517.432V20.964H518.932V19.464ZM561.812 19.464H563.312V17.964H561.812V19.464ZM561.812 30.5H568.245V27.5H561.812V30.5ZM569.745 29V6.472H566.745V29H569.745ZM569.745 6.472C569.745 2.69375 566.667 -0.372002 562.868 -0.372002V2.628C565.022 2.628 566.745 4.36225 566.745 6.472H569.745ZM562.868 -0.372002H513.556V2.628H562.868V-0.372002ZM513.556 -0.372002C509.784 -0.372002 506.712 2.69957 506.712 6.472H509.712C509.712 4.35643 511.441 2.628 513.556 2.628V-0.372002ZM506.712 6.472V29H509.712V6.472H506.712ZM508.212 30.5H514.645V27.5H508.212V30.5ZM516.144 29V7.56H513.145V29H516.144ZM514.645 9.06H561.812V6.06H514.645V9.06ZM560.312 7.56V13.032H563.312V7.56H560.312ZM561.812 11.532H518.932V14.532H561.812V11.532ZM517.432 13.032V19.464H520.432V13.032H517.432ZM518.932 20.964H561.812V17.964H518.932V20.964ZM560.312 19.464V29H563.312V19.464H560.312ZM632.846 29V30.5H634.346V29H632.846ZM632.846 22.568H634.346V21.068H632.846V22.568ZM593.134 22.568H591.634V24.068H593.134V22.568ZM593.134 18.248V16.748H591.634V18.248H593.134ZM631.374 3.464L632.434 2.40334V2.40334L631.374 3.464ZM573.838 29H572.338V30.5H573.838V29ZM580.27 29V30.5H581.77V29H580.27ZM580.27 7.432V5.932H578.77V7.432H580.27ZM626.83 8.008L627.89 6.94734V6.94734L626.83 8.008ZM634.346 29V22.568H631.346V29H634.346ZM632.846 21.068H593.134V24.068H632.846V21.068ZM594.634 22.568V18.248H591.634V22.568H594.634ZM593.134 19.748H625.23V16.748H593.134V19.748ZM625.23 19.748C630.826 19.748 635.37 15.2044 635.37 9.608H632.37C632.37 13.5476 629.169 16.748 625.23 16.748V19.748ZM635.37 9.608V9.448H632.37V9.608H635.37ZM635.37 9.448C635.37 6.80445 634.311 4.28057 632.434 2.40334L630.313 4.52466C631.636 5.84743 632.37 7.61154 632.37 9.448H635.37ZM632.434 2.40334C630.549 0.517932 628.054 -0.500002 625.39 -0.500002V2.5C627.27 2.5 628.998 3.21006 630.313 4.52466L632.434 2.40334ZM625.39 -0.500002H579.182V2.5H625.39V-0.500002ZM579.182 -0.500002C575.409 -0.500002 572.338 2.57157 572.338 6.344H575.338C575.338 4.22843 577.066 2.5 579.182 2.5V-0.500002ZM572.338 6.344V29H575.338V6.344H572.338ZM573.838 30.5H580.27V27.5H573.838V30.5ZM581.77 29V7.432H578.77V29H581.77ZM580.27 8.932H625.39V5.932H580.27V8.932ZM625.39 8.932C625.575 8.932 625.693 8.99271 625.769 9.06866L627.89 6.94734C627.198 6.25529 626.292 5.932 625.39 5.932V8.932ZM625.769 9.06866C625.887 9.18718 625.938 9.32366 625.938 9.448H628.938C628.938 8.48434 628.54 7.59682 627.89 6.94734L625.769 9.06866ZM625.938 9.448V9.608H628.938V9.448H625.938ZM625.938 9.608C625.938 9.99557 625.617 10.316 625.23 10.316V13.316C627.274 13.316 628.938 11.6524 628.938 9.608H625.938ZM625.23 10.316H592.046V13.316H625.23V10.316ZM592.046 10.316C588.267 10.316 585.202 13.3934 585.202 17.192H588.202C588.202 15.0386 589.936 13.316 592.046 13.316V10.316ZM585.202 17.192V23.656H588.202V17.192H585.202ZM585.202 23.656C585.202 27.4284 588.273 30.5 592.046 30.5V27.5C589.93 27.5 588.202 25.7716 588.202 23.656H585.202ZM592.046 30.5H632.846V27.5H592.046V30.5ZM696.903 28.232L697.667 29.5224L697.674 29.5182L697.682 29.5138L696.903 28.232ZM699.495 0.999998H700.995V-0.500002H699.495V0.999998ZM693.062 0.999998V-0.500002H691.562V0.999998H693.062ZM693.062 21.992L692.449 23.3607L694.562 24.3085V21.992H693.062ZM647.174 1.416L646.514 2.76288L646.537 2.77419L646.561 2.7847L647.174 1.416ZM642.023 1.64L641.251 0.35376L641.241 0.359385L641.232 0.365145L642.023 1.64ZM639.463 28.904H637.963V30.404H639.463V28.904ZM645.895 28.904V30.404H647.395V28.904H645.895ZM645.895 7.88L646.509 6.51146L644.395 5.56285V7.88H645.895ZM691.751 28.456L692.421 27.1144L692.393 27.1003L692.365 27.0875L691.751 28.456ZM694.119 30.5C695.347 30.5 696.571 30.1721 697.667 29.5224L696.138 26.9416C695.506 27.3159 694.81 27.5 694.119 27.5V30.5ZM697.682 29.5138C699.755 28.2533 700.995 26.0746 700.995 23.656H697.995C697.995 25.0134 697.314 26.2267 696.123 26.9502L697.682 29.5138ZM700.995 23.656V0.999998H697.995V23.656H700.995ZM699.495 -0.500002H693.062V2.5H699.495V-0.500002ZM691.562 0.999998V21.992H694.562V0.999998H691.562ZM693.676 20.6233L647.788 0.0472959L646.561 2.7847L692.449 23.3607L693.676 20.6233ZM647.835 0.0691172C645.749 -0.953143 643.29 -0.869839 641.251 0.35376L642.794 2.92624C643.955 2.22984 645.336 2.18514 646.514 2.76288L647.835 0.0691172ZM641.232 0.365145C639.189 1.63165 637.963 3.84273 637.963 6.248H640.963C640.963 4.87727 641.656 3.63235 642.813 2.91485L641.232 0.365145ZM637.963 6.248V28.904H640.963V6.248H637.963ZM639.463 30.404H645.895V27.404H639.463V30.404ZM647.395 28.904V7.88H644.395V28.904H647.395ZM645.28 9.24854L691.136 29.8245L692.365 27.0875L646.509 6.51146L645.28 9.24854ZM691.08 29.7976C692.079 30.2975 693.113 30.5 694.119 30.5V27.5C693.524 27.5 692.958 27.3825 692.421 27.1144L691.08 29.7976Z" fill="black"/>
</g>
<defs>
<filter id="filter0_d_3_14" x="0" y="0.615997" width="703.495" height="36.384" filterUnits="userSpaceOnUse" color-interpolation-filters="sRGB">
<feFlood flood-opacity="0" result="BackgroundImageFix"/>
<feColorMatrix in="SourceAlpha" type="matrix" values="0 0 0 0 0 0 0 0 0 0 0 0 0 0 0 0 0 0 127 0" result="hardAlpha"/>
<feOffset dy="4"/>
<feGaussianBlur stdDeviation="2"/>
<feComposite in2="hardAlpha" operator="out"/>
<feColorMatrix type="matrix" values="0 0 0 0 0 0 0 0 0 0 0 0 0 0 0 0 0 0 0.25 0"/>
<feBlend mode="normal" in2="BackgroundImageFix" result="effect1_dropShadow_3_14"/>
<feBlend mode="normal" in="SourceGraphic" in2="effect1_dropShadow_3_14" result="shape"/>
</filter>
</defs>
</svg>
