<svg width="24" height="24" viewBox="0 0 24 24" fill="none" xmlns="http://www.w3.org/2000/svg">
<path d="M18.8368 20.2454C18.7747 20.4044 18.6804 20.548 18.56 20.6665C18.4396 20.7849 18.2959 20.8755 18.1386 20.9322C17.9814 20.989 17.8141 21.0105 17.6481 20.9952C17.4821 20.9801 17.3212 20.9286 17.1761 20.8444L12.6766 17.2503L9.78888 19.989C9.72188 20.04 9.64349 20.0727 9.56096 20.0843C9.47841 20.0959 9.39435 20.0859 9.31652 20.0554L9.8701 14.9635L9.88782 14.9779L9.89914 14.8775C9.89914 14.8775 17.9957 7.29953 18.3256 6.97667C18.6595 6.65465 18.5493 6.58479 18.5493 6.58479C18.5683 6.19199 17.9501 6.58479 17.9501 6.58479L7.22232 13.6797L2.75472 12.1156C2.75472 12.1156 2.06855 11.8625 2.00391 11.3062C1.93595 10.7542 2.77708 10.4543 2.77708 10.4543L20.5398 3.20014C20.5398 3.20014 22 2.53134 22 3.6389L18.8368 20.2454Z" fill="white" fill-opacity="0.7"/>
</svg>
