<svg width="347" height="347" viewBox="0 0 347 347" fill="none" xmlns="http://www.w3.org/2000/svg">
<circle cx="173.5" cy="173.5" r="120.5" transform="rotate(-122.356 173.5 173.5)" stroke="black" stroke-width="10" stroke-miterlimit="3.99933"/>
<path d="M139.567 57.8767C150.482 54.6732 161.796 53.0315 173.172 53.0005" stroke="url(#paint0_linear_49_2011)" stroke-width="10" stroke-miterlimit="3.99933"/>
<path d="M103.772 75.2236C114.085 67.9066 125.485 62.2585 137.554 58.4865" stroke="url(#paint1_linear_49_2011)" stroke-width="10" stroke-miterlimit="3.99933"/>
<path d="M174.854 53.0077C186.229 53.1356 197.529 54.8736 208.417 58.1699" stroke="url(#paint2_linear_49_2011)" stroke-width="10" stroke-miterlimit="3.99933"/>
<path d="M210.024 58.6687C220.139 61.8861 229.786 66.4262 238.712 72.1709" stroke="url(#paint3_linear_49_2011)" stroke-width="10" stroke-miterlimit="3.99933"/>
<path d="M240.261 73.1844C261.445 87.2829 277.623 107.726 286.475 131.584" stroke="url(#paint4_linear_49_2011)" stroke-width="10" stroke-miterlimit="3.99933"/>
<path d="M287.189 133.562C293.492 151.503 295.459 170.681 292.929 189.528C290.4 208.376 283.446 226.356 272.636 242.001" stroke="url(#paint5_linear_49_2011)" stroke-width="10" stroke-miterlimit="3.99933"/>
<path d="M271.425 243.721C261.274 257.876 248.175 269.663 233.031 278.268C217.886 286.873 201.056 292.093 183.7 293.568C166.344 295.042 148.875 292.736 132.496 286.809C116.117 280.882 101.218 271.474 88.8245 259.234C76.4315 246.994 66.8394 232.213 60.7091 215.909C54.5789 199.605 52.0562 182.165 53.3149 164.792C54.5737 147.419 59.5839 130.526 68.0004 115.276C76.4168 100.025 88.0395 86.7812 102.067 76.4555" stroke="url(#paint6_linear_49_2011)" stroke-width="10" stroke-miterlimit="3.99933"/>
<circle cx="175" cy="174" r="98.5" stroke="url(#paint7_linear_49_2011)"/>
<path d="M107.18 177V191H103.94V179.6H101.14V177H107.18ZM111.472 187.28C112.032 187.28 112.492 187.46 112.852 187.82C113.212 188.167 113.392 188.627 113.392 189.2C113.392 189.467 113.359 189.733 113.292 190C113.225 190.267 113.079 190.667 112.852 191.2L111.712 194.08H109.732L110.612 190.9C110.279 190.767 110.012 190.553 109.812 190.26C109.625 189.953 109.532 189.6 109.532 189.2C109.532 188.627 109.712 188.167 110.072 187.82C110.445 187.46 110.912 187.28 111.472 187.28ZM120.593 191.24C119.433 191.24 118.399 190.953 117.493 190.38C116.586 189.807 115.873 188.98 115.353 187.9C114.846 186.807 114.593 185.507 114.593 184C114.593 182.493 114.846 181.2 115.353 180.12C115.873 179.027 116.586 178.193 117.493 177.62C118.399 177.047 119.433 176.76 120.593 176.76C121.753 176.76 122.786 177.047 123.693 177.62C124.599 178.193 125.306 179.027 125.813 180.12C126.333 181.2 126.593 182.493 126.593 184C126.593 185.507 126.333 186.807 125.813 187.9C125.306 188.98 124.599 189.807 123.693 190.38C122.786 190.953 121.753 191.24 120.593 191.24ZM120.593 188.5C121.446 188.5 122.113 188.133 122.593 187.4C123.086 186.667 123.333 185.533 123.333 184C123.333 182.467 123.086 181.333 122.593 180.6C122.113 179.867 121.446 179.5 120.593 179.5C119.753 179.5 119.086 179.867 118.593 180.6C118.113 181.333 117.873 182.467 117.873 184C117.873 185.533 118.113 186.667 118.593 187.4C119.086 188.133 119.753 188.5 120.593 188.5ZM134.167 191.24C133.007 191.24 131.973 190.953 131.067 190.38C130.16 189.807 129.447 188.98 128.927 187.9C128.42 186.807 128.167 185.507 128.167 184C128.167 182.493 128.42 181.2 128.927 180.12C129.447 179.027 130.16 178.193 131.067 177.62C131.973 177.047 133.007 176.76 134.167 176.76C135.327 176.76 136.36 177.047 137.267 177.62C138.173 178.193 138.88 179.027 139.387 180.12C139.907 181.2 140.167 182.493 140.167 184C140.167 185.507 139.907 186.807 139.387 187.9C138.88 188.98 138.173 189.807 137.267 190.38C136.36 190.953 135.327 191.24 134.167 191.24ZM134.167 188.5C135.02 188.5 135.687 188.133 136.167 187.4C136.66 186.667 136.907 185.533 136.907 184C136.907 182.467 136.66 181.333 136.167 180.6C135.687 179.867 135.02 179.5 134.167 179.5C133.327 179.5 132.66 179.867 132.167 180.6C131.687 181.333 131.447 182.467 131.447 184C131.447 185.533 131.687 186.667 132.167 187.4C132.66 188.133 133.327 188.5 134.167 188.5ZM147.741 191.24C146.581 191.24 145.548 190.953 144.641 190.38C143.734 189.807 143.021 188.98 142.501 187.9C141.994 186.807 141.741 185.507 141.741 184C141.741 182.493 141.994 181.2 142.501 180.12C143.021 179.027 143.734 178.193 144.641 177.62C145.548 177.047 146.581 176.76 147.741 176.76C148.901 176.76 149.934 177.047 150.841 177.62C151.748 178.193 152.454 179.027 152.961 180.12C153.481 181.2 153.741 182.493 153.741 184C153.741 185.507 153.481 186.807 152.961 187.9C152.454 188.98 151.748 189.807 150.841 190.38C149.934 190.953 148.901 191.24 147.741 191.24ZM147.741 188.5C148.594 188.5 149.261 188.133 149.741 187.4C150.234 186.667 150.481 185.533 150.481 184C150.481 182.467 150.234 181.333 149.741 180.6C149.261 179.867 148.594 179.5 147.741 179.5C146.901 179.5 146.234 179.867 145.741 180.6C145.261 181.333 145.021 182.467 145.021 184C145.021 185.533 145.261 186.667 145.741 187.4C146.234 188.133 146.901 188.5 147.741 188.5ZM156.921 187.28C157.481 187.28 157.941 187.46 158.301 187.82C158.661 188.167 158.841 188.627 158.841 189.2C158.841 189.467 158.808 189.733 158.741 190C158.675 190.267 158.528 190.667 158.301 191.2L157.161 194.08H155.181L156.061 190.9C155.728 190.767 155.461 190.553 155.261 190.26C155.075 189.953 154.981 189.6 154.981 189.2C154.981 188.627 155.161 188.167 155.521 187.82C155.895 187.46 156.361 187.28 156.921 187.28ZM166.042 191.24C164.882 191.24 163.848 190.953 162.942 190.38C162.035 189.807 161.322 188.98 160.802 187.9C160.295 186.807 160.042 185.507 160.042 184C160.042 182.493 160.295 181.2 160.802 180.12C161.322 179.027 162.035 178.193 162.942 177.62C163.848 177.047 164.882 176.76 166.042 176.76C167.202 176.76 168.235 177.047 169.142 177.62C170.048 178.193 170.755 179.027 171.262 180.12C171.782 181.2 172.042 182.493 172.042 184C172.042 185.507 171.782 186.807 171.262 187.9C170.755 188.98 170.048 189.807 169.142 190.38C168.235 190.953 167.202 191.24 166.042 191.24ZM166.042 188.5C166.895 188.5 167.562 188.133 168.042 187.4C168.535 186.667 168.782 185.533 168.782 184C168.782 182.467 168.535 181.333 168.042 180.6C167.562 179.867 166.895 179.5 166.042 179.5C165.202 179.5 164.535 179.867 164.042 180.6C163.562 181.333 163.322 182.467 163.322 184C163.322 185.533 163.562 186.667 164.042 187.4C164.535 188.133 165.202 188.5 166.042 188.5ZM179.616 191.24C178.456 191.24 177.423 190.953 176.516 190.38C175.609 189.807 174.896 188.98 174.376 187.9C173.869 186.807 173.616 185.507 173.616 184C173.616 182.493 173.869 181.2 174.376 180.12C174.896 179.027 175.609 178.193 176.516 177.62C177.423 177.047 178.456 176.76 179.616 176.76C180.776 176.76 181.809 177.047 182.716 177.62C183.623 178.193 184.329 179.027 184.836 180.12C185.356 181.2 185.616 182.493 185.616 184C185.616 185.507 185.356 186.807 184.836 187.9C184.329 188.98 183.623 189.807 182.716 190.38C181.809 190.953 180.776 191.24 179.616 191.24ZM179.616 188.5C180.469 188.5 181.136 188.133 181.616 187.4C182.109 186.667 182.356 185.533 182.356 184C182.356 182.467 182.109 181.333 181.616 180.6C181.136 179.867 180.469 179.5 179.616 179.5C178.776 179.5 178.109 179.867 177.616 180.6C177.136 181.333 176.896 182.467 176.896 184C176.896 185.533 177.136 186.667 177.616 187.4C178.109 188.133 178.776 188.5 179.616 188.5ZM193.19 191.24C192.03 191.24 190.997 190.953 190.09 190.38C189.183 189.807 188.47 188.98 187.95 187.9C187.443 186.807 187.19 185.507 187.19 184C187.19 182.493 187.443 181.2 187.95 180.12C188.47 179.027 189.183 178.193 190.09 177.62C190.997 177.047 192.03 176.76 193.19 176.76C194.35 176.76 195.383 177.047 196.29 177.62C197.197 178.193 197.903 179.027 198.41 180.12C198.93 181.2 199.19 182.493 199.19 184C199.19 185.507 198.93 186.807 198.41 187.9C197.903 188.98 197.197 189.807 196.29 190.38C195.383 190.953 194.35 191.24 193.19 191.24ZM193.19 188.5C194.043 188.5 194.71 188.133 195.19 187.4C195.683 186.667 195.93 185.533 195.93 184C195.93 182.467 195.683 181.333 195.19 180.6C194.71 179.867 194.043 179.5 193.19 179.5C192.35 179.5 191.683 179.867 191.19 180.6C190.71 181.333 190.47 182.467 190.47 184C190.47 185.533 190.71 186.667 191.19 187.4C191.683 188.133 192.35 188.5 193.19 188.5ZM202.37 187.28C202.93 187.28 203.39 187.46 203.75 187.82C204.11 188.167 204.29 188.627 204.29 189.2C204.29 189.467 204.257 189.733 204.19 190C204.124 190.267 203.977 190.667 203.75 191.2L202.61 194.08H200.63L201.51 190.9C201.177 190.767 200.91 190.553 200.71 190.26C200.524 189.953 200.43 189.6 200.43 189.2C200.43 188.627 200.61 188.167 200.97 187.82C201.344 187.46 201.81 187.28 202.37 187.28ZM211.491 191.24C210.331 191.24 209.298 190.953 208.391 190.38C207.484 189.807 206.771 188.98 206.251 187.9C205.744 186.807 205.491 185.507 205.491 184C205.491 182.493 205.744 181.2 206.251 180.12C206.771 179.027 207.484 178.193 208.391 177.62C209.298 177.047 210.331 176.76 211.491 176.76C212.651 176.76 213.684 177.047 214.591 177.62C215.498 178.193 216.204 179.027 216.711 180.12C217.231 181.2 217.491 182.493 217.491 184C217.491 185.507 217.231 186.807 216.711 187.9C216.204 188.98 215.498 189.807 214.591 190.38C213.684 190.953 212.651 191.24 211.491 191.24ZM211.491 188.5C212.344 188.5 213.011 188.133 213.491 187.4C213.984 186.667 214.231 185.533 214.231 184C214.231 182.467 213.984 181.333 213.491 180.6C213.011 179.867 212.344 179.5 211.491 179.5C210.651 179.5 209.984 179.867 209.491 180.6C209.011 181.333 208.771 182.467 208.771 184C208.771 185.533 209.011 186.667 209.491 187.4C209.984 188.133 210.651 188.5 211.491 188.5ZM225.065 191.24C223.905 191.24 222.872 190.953 221.965 190.38C221.058 189.807 220.345 188.98 219.825 187.9C219.318 186.807 219.065 185.507 219.065 184C219.065 182.493 219.318 181.2 219.825 180.12C220.345 179.027 221.058 178.193 221.965 177.62C222.872 177.047 223.905 176.76 225.065 176.76C226.225 176.76 227.258 177.047 228.165 177.62C229.072 178.193 229.778 179.027 230.285 180.12C230.805 181.2 231.065 182.493 231.065 184C231.065 185.507 230.805 186.807 230.285 187.9C229.778 188.98 229.072 189.807 228.165 190.38C227.258 190.953 226.225 191.24 225.065 191.24ZM225.065 188.5C225.918 188.5 226.585 188.133 227.065 187.4C227.558 186.667 227.805 185.533 227.805 184C227.805 182.467 227.558 181.333 227.065 180.6C226.585 179.867 225.918 179.5 225.065 179.5C224.225 179.5 223.558 179.867 223.065 180.6C222.585 181.333 222.345 182.467 222.345 184C222.345 185.533 222.585 186.667 223.065 187.4C223.558 188.133 224.225 188.5 225.065 188.5ZM238.639 191.24C237.479 191.24 236.446 190.953 235.539 190.38C234.633 189.807 233.919 188.98 233.399 187.9C232.893 186.807 232.639 185.507 232.639 184C232.639 182.493 232.893 181.2 233.399 180.12C233.919 179.027 234.633 178.193 235.539 177.62C236.446 177.047 237.479 176.76 238.639 176.76C239.799 176.76 240.833 177.047 241.739 177.62C242.646 178.193 243.353 179.027 243.859 180.12C244.379 181.2 244.639 182.493 244.639 184C244.639 185.507 244.379 186.807 243.859 187.9C243.353 188.98 242.646 189.807 241.739 190.38C240.833 190.953 239.799 191.24 238.639 191.24ZM238.639 188.5C239.493 188.5 240.159 188.133 240.639 187.4C241.133 186.667 241.379 185.533 241.379 184C241.379 182.467 241.133 181.333 240.639 180.6C240.159 179.867 239.493 179.5 238.639 179.5C237.799 179.5 237.133 179.867 236.639 180.6C236.159 181.333 235.919 182.467 235.919 184C235.919 185.533 236.159 186.667 236.639 187.4C237.133 188.133 237.799 188.5 238.639 188.5Z" fill="white"/>
<path d="M125.5 162H126.536V153.096H129.98V152.2H122.056V153.096H125.5V162ZM135.782 162.084C138.722 162.084 140.92 159.97 140.92 157.1C140.92 154.23 138.722 152.116 135.782 152.116C132.814 152.116 130.63 154.244 130.63 157.1C130.63 159.956 132.814 162.084 135.782 162.084ZM135.782 161.16C133.416 161.16 131.652 159.438 131.652 157.1C131.652 154.762 133.416 153.04 135.782 153.04C138.134 153.04 139.884 154.762 139.884 157.1C139.884 159.438 138.134 161.16 135.782 161.16ZM145.01 162H146.046V153.096H149.49V152.2H141.566V153.096H145.01V162ZM157.975 162H159.067L154.587 152.2H153.565L149.085 162H150.163L151.339 159.382H156.799L157.975 162ZM151.717 158.542L154.069 153.278L156.421 158.542H151.717ZM160.688 162H167.212V161.104H161.724V152.2H160.688V162ZM175.298 162.084C177.804 162.084 178.952 160.852 178.952 159.41C178.952 155.84 172.918 157.464 172.918 154.776C172.918 153.796 173.716 152.998 175.508 152.998C176.376 152.998 177.356 153.264 178.196 153.81L178.546 152.984C177.762 152.438 176.614 152.116 175.508 152.116C173.016 152.116 171.896 153.362 171.896 154.804C171.896 158.43 177.93 156.778 177.93 159.466C177.93 160.432 177.132 161.202 175.298 161.202C174.01 161.202 172.764 160.698 172.064 160.012L171.658 160.81C172.386 161.566 173.828 162.084 175.298 162.084ZM185.157 162.084C187.663 162.084 189.175 160.628 189.175 157.814V152.2H188.167V157.772C188.167 160.096 187.075 161.16 185.157 161.16C183.253 161.16 182.161 160.096 182.161 157.772V152.2H181.125V157.814C181.125 160.628 182.651 162.084 185.157 162.084ZM195.965 152.2H192.297V162H193.333V158.906H195.965C198.457 158.906 199.969 157.646 199.969 155.56C199.969 153.46 198.457 152.2 195.965 152.2ZM195.937 157.996H193.333V153.096H195.937C197.897 153.096 198.933 153.992 198.933 155.56C198.933 157.1 197.897 157.996 195.937 157.996ZM205.877 152.2H202.209V162H203.245V158.906H205.877C208.369 158.906 209.881 157.646 209.881 155.56C209.881 153.46 208.369 152.2 205.877 152.2ZM205.849 157.996H203.245V153.096H205.849C207.809 153.096 208.845 153.992 208.845 155.56C208.845 157.1 207.809 157.996 205.849 157.996ZM212.121 162H218.645V161.104H213.157V152.2H212.121V162ZM226.606 152.2H225.57L222.21 157.702L218.85 152.2H217.744L221.664 158.612V162H222.686V158.612L226.606 152.2Z" fill="white"/>
<defs>
<linearGradient id="paint0_linear_49_2011" x1="139.116" y1="56.9633" x2="173.811" y2="51.8884" gradientUnits="userSpaceOnUse">
<stop stop-color="white"/>
<stop offset="1" stop-color="#FA5711"/>
</linearGradient>
<linearGradient id="paint1_linear_49_2011" x1="103.14" y1="73.6529" x2="137.648" y2="57.1175" gradientUnits="userSpaceOnUse">
<stop stop-color="white"/>
<stop offset="1" stop-color="#4D11FA"/>
</linearGradient>
<linearGradient id="paint2_linear_49_2011" x1="175.313" y1="53.972" x2="208.782" y2="58.2193" gradientUnits="userSpaceOnUse">
<stop stop-color="white"/>
<stop offset="1" stop-color="#FFC700"/>
</linearGradient>
<linearGradient id="paint3_linear_49_2011" x1="207.247" y1="58.5996" x2="241.352" y2="71.3232" gradientUnits="userSpaceOnUse">
<stop stop-color="white"/>
<stop offset="1" stop-color="#00BC35"/>
</linearGradient>
<linearGradient id="paint4_linear_49_2011" x1="237.27" y1="69.5741" x2="287.001" y2="130.281" gradientUnits="userSpaceOnUse">
<stop stop-color="white"/>
<stop offset="1" stop-color="#1152FA"/>
</linearGradient>
<linearGradient id="paint5_linear_49_2011" x1="282.335" y1="134.143" x2="273.284" y2="248.787" gradientUnits="userSpaceOnUse">
<stop stop-color="white"/>
<stop offset="1" stop-color="#FF34DF"/>
</linearGradient>
<linearGradient id="paint6_linear_49_2011" x1="267.694" y1="244.634" x2="95.7758" y2="74.175" gradientUnits="userSpaceOnUse">
<stop stop-color="white"/>
<stop offset="1" stop-color="#00BDD7"/>
</linearGradient>
<linearGradient id="paint7_linear_49_2011" x1="76" y1="93" x2="291.54" y2="117.279" gradientUnits="userSpaceOnUse">
<stop stop-color="#05FFFF"/>
<stop offset="0.333333" stop-color="#2C80FF"/>
<stop offset="0.645833" stop-color="#3834FF"/>
<stop offset="1" stop-color="#FA118E"/>
</linearGradient>
</defs>
</svg>
