<svg width="40" height="40" viewBox="0 0 40 40" fill="none" xmlns="http://www.w3.org/2000/svg">
<path d="M20 40C31.0457 40 40 31.0457 40 20C40 8.9543 31.0457 0 20 0C8.9543 0 0 8.9543 0 20C0 31.0457 8.9543 40 20 40Z" fill="url(#paint0_linear_402_278)"/>
<path d="M9.47501 29.4498C8.58997 29.457 7.72397 29.1929 6.99353 28.6931C5.94355 27.9647 5.23726 26.4859 5.23411 25.0324C5.23099 24.3152 5.40595 23.6085 5.7433 22.9756C6.08064 22.3427 6.56982 21.8035 7.16695 21.4063C7.30896 21.3017 7.47042 21.2266 7.64187 21.1852C7.81332 21.1439 7.9913 21.1372 8.16537 21.1656C8.33943 21.194 8.50607 21.2568 8.65551 21.3505C8.80495 21.4441 8.93418 21.5667 9.03562 21.711C9.13705 21.8553 9.20864 22.0183 9.2462 22.1907C9.28375 22.363 9.2865 22.5411 9.2543 22.7145C9.22209 22.8878 9.15558 23.0531 9.05866 23.2004C8.96174 23.3478 8.83636 23.4743 8.68989 23.5725C8.44256 23.7251 8.23849 23.9385 8.09718 24.1924C7.95586 24.4464 7.88201 24.7323 7.8827 25.0229C7.88192 25.3012 7.93738 25.5767 8.04575 25.833C8.15412 26.0893 8.31315 26.321 8.51332 26.5143C8.70565 26.6499 9.74302 27.2553 11.2912 26.0823C12.1457 25.4517 18.3131 20.0063 22.3963 16.415C24.9503 14.1668 26.4071 12.8835 26.6877 12.6534C27.7219 11.802 29.4592 10.957 31.2376 11.1462C31.7781 11.1962 32.3028 11.3556 32.7798 11.6147C33.2568 11.8738 33.6761 12.2272 34.0123 12.6534C34.1206 12.7896 34.201 12.9458 34.2489 13.1131C34.2968 13.2804 34.3112 13.4555 34.2915 13.6284C34.2717 13.8013 34.2181 13.9686 34.1337 14.1208C34.0493 14.2729 33.9357 14.407 33.7995 14.5153C33.6632 14.6235 33.507 14.7039 33.3397 14.7518C33.1724 14.7997 32.9973 14.8142 32.8244 14.7944C32.6515 14.7747 32.4842 14.7211 32.3321 14.6366C32.1799 14.5522 32.0458 14.4387 31.9376 14.3024C31.8204 14.1518 31.6728 14.0276 31.5044 13.938C31.3359 13.8483 31.1505 13.7952 30.9601 13.7822C30.0156 13.7588 29.0958 14.0856 28.3777 14.6997C28.116 14.9141 26.2809 16.5317 24.1526 18.4046C18.5054 23.3738 13.7474 27.5485 12.8961 28.1949C11.9262 28.9806 10.7229 29.422 9.47501 29.4498V29.4498Z" fill="white"/>
<path d="M23.1121 28.6015C22.3405 28.5964 21.5822 28.4004 20.9049 28.0308C19.609 27.3403 16.8627 25.0985 19.2874 19.1612C20.7283 15.6266 20.4067 14.1163 20.0883 13.5424C19.9369 13.2681 19.6311 12.8834 18.7324 12.7226C16.6735 12.3568 14.5735 13.4257 13.8389 15.2104C13.5236 15.9703 13.5425 16.6513 13.8799 17.0297C14.1636 17.345 14.6713 17.4459 15.242 17.2883C15.4097 17.2421 15.5848 17.2294 15.7574 17.2509C15.93 17.2725 16.0967 17.3278 16.2479 17.4137C16.3992 17.4996 16.532 17.6145 16.6388 17.7518C16.7456 17.889 16.8244 18.046 16.8706 18.2137C16.9167 18.3814 16.9294 18.5565 16.9079 18.7291C16.8864 18.9017 16.8311 19.0684 16.7451 19.2196C16.6592 19.3709 16.5443 19.5037 16.407 19.6105C16.2698 19.7174 16.1128 19.7961 15.9451 19.8423C14.3686 20.2742 12.8646 19.8801 11.8966 18.786C10.875 17.6351 10.6858 15.923 11.3889 14.2077C12.6123 11.2438 15.8915 9.52223 19.2023 10.115C21.0626 10.4461 21.9738 11.4677 22.4152 12.2654C23.4022 14.0595 23.1814 16.6419 21.7563 20.1796C20.9459 22.1692 20.3563 24.7422 22.1662 25.707C22.6391 25.9561 24.058 26.7191 26.6025 23.4368C26.6992 23.2781 26.8282 23.1416 26.9811 23.0361C27.134 22.9306 27.3074 22.8584 27.49 22.8242C27.6726 22.7901 27.8604 22.7947 28.0411 22.8379C28.2218 22.8811 28.3913 22.9618 28.5388 23.0748C28.6863 23.1878 28.8083 23.3305 28.897 23.4938C28.9857 23.657 29.0391 23.8371 29.0536 24.0223C29.0681 24.2075 29.0436 24.3937 28.9814 24.5688C28.9193 24.7439 28.8211 24.9039 28.693 25.0385C26.5899 27.747 24.6792 28.6015 23.1121 28.6015Z" fill="white"/>
<defs>
<linearGradient id="paint0_linear_402_278" x1="5.85843" y1="5.85843" x2="34.1416" y2="34.1416" gradientUnits="userSpaceOnUse">
<stop stop-color="#FF00BB"/>
<stop offset="1" stop-color="#0C31E8"/>
</linearGradient>
</defs>
</svg>
