<svg width="80" height="14" viewBox="0 0 80 14" fill="none" xmlns="http://www.w3.org/2000/svg">
<path d="M0.159936 0.378663L6.08823 6.98422L0 13.7791H3.40131L7.79421 8.87754L12.1871 13.7791H15.6204L3.59323 0.378663H0.159936Z" fill="white"/>
<path d="M15.4285 0.378663H12.0272L9.27629 3.43426L10.9823 5.33283L15.4285 0.378663Z" fill="white"/>
<path d="M30.2172 1.5725C29.199 0.778362 27.7063 0.373403 25.7764 0.373403H17.1611V13.7791H19.9494V9.6296H25.8563C27.7649 9.6296 29.2363 9.22464 30.2386 8.4305C31.2302 7.64162 31.7366 6.48986 31.7366 5.0015C31.7366 3.51841 31.2248 2.36138 30.2172 1.5725ZM25.6964 7.01578H19.9494V2.99249H25.6964C27.6743 2.99249 28.9004 3.32908 28.9004 5.0015C28.9004 6.67393 27.6743 7.01578 25.6964 7.01578Z" fill="white"/>
<path d="M38.2247 0.378663L31.0702 13.7791H34.0504L39.6801 2.91886L45.006 13.7791H47.9915L41.1942 0.378663H38.2247Z" fill="white"/>
<path d="M50.4758 1.84598C48.9831 3.0556 48.1887 4.83847 48.1887 7C48.1887 9.16679 48.9884 10.9497 50.5025 12.154C52.0219 13.3636 54.2663 14 56.9959 14C59.4749 14 61.4208 13.4636 63.4946 12.2014V9.32983C61.3515 10.692 59.203 11.3862 57.1078 11.3862C55.1299 11.3862 53.5946 10.997 52.5443 10.2344C51.5101 9.48234 50.9823 8.39895 50.9823 7.02104C50.9823 5.63261 51.5154 4.53869 52.5603 3.77611C53.6159 3.00826 55.1459 2.61908 57.1078 2.61908C59.235 2.61908 61.3888 3.3133 63.5106 4.68069V1.79865C61.4901 0.573253 59.3629 0 56.8199 0C54.165 0 51.9686 0.636363 50.4758 1.84598Z" fill="white"/>
<path d="M80 2.93989V0.378663H66.2508V13.7791H80V11.2179H69.0391V8.30954H79.307V5.8272H69.0391V2.93989H80Z" fill="white"/>
</svg>
