<svg width="29" height="22" viewBox="0 0 29 22" fill="none" xmlns="http://www.w3.org/2000/svg">
<path d="M14.4407 18.0972C15.6427 17.5933 17.0173 17.8844 17.9336 18.8307L20.9845 22H28.4502L24.6877 18.0972C21.8578 15.1575 17.2706 15.1575 14.4407 18.0972Z" fill="white"/>
<path d="M24.6877 4.47391L29 0H21.5344L17.939 3.73479C17.0227 4.68669 15.6427 4.97786 14.4353 4.47391L14.4407 4.47951C17.2706 7.41359 21.8578 7.41359 24.6877 4.47391Z" fill="white"/>
<path d="M13.9017 11.5851C14.2143 11.5851 14.4677 11.3219 14.4677 10.9972C14.4677 10.6725 14.2143 10.4093 13.9017 10.4093C13.5891 10.4093 13.3357 10.6725 13.3357 10.9972C13.3357 11.3219 13.5891 11.5851 13.9017 11.5851Z" fill="white"/>
<path d="M15.9069 11.5571C16.2046 11.5571 16.4459 11.3064 16.4459 10.9972C16.4459 10.688 16.2046 10.4373 15.9069 10.4373C15.6092 10.4373 15.3679 10.688 15.3679 10.9972C15.3679 11.3064 15.6092 11.5571 15.9069 11.5571Z" fill="white"/>
<path d="M8.41432 9.53016C8.74179 9.53016 9.00725 9.2544 9.00725 8.91423C9.00725 8.57406 8.74179 8.2983 8.41432 8.2983C8.08685 8.2983 7.82138 8.57406 7.82138 8.91423C7.82138 9.2544 8.08685 9.53016 8.41432 9.53016Z" fill="white"/>
<path d="M11.8911 11.6131C12.2186 11.6131 12.484 11.3374 12.484 10.9972C12.484 10.657 12.2186 10.3813 11.8911 10.3813C11.5636 10.3813 11.2981 10.657 11.2981 10.9972C11.2981 11.3374 11.5636 11.6131 11.8911 11.6131Z" fill="white"/>
<path d="M10.4195 9.53016C10.747 9.53016 11.0125 9.2544 11.0125 8.91423C11.0125 8.57406 10.747 8.2983 10.4195 8.2983C10.0921 8.2983 9.82658 8.57406 9.82658 8.91423C9.82658 9.2544 10.0921 9.53016 10.4195 9.53016Z" fill="white"/>
<path d="M12.4301 9.53016C12.7576 9.53016 13.0231 9.2544 13.0231 8.91423C13.0231 8.57406 12.7576 8.2983 12.4301 8.2983C12.1026 8.2983 11.8372 8.57406 11.8372 8.91423C11.8372 9.2544 12.1026 9.53016 12.4301 9.53016Z" fill="white"/>
<path d="M14.4407 9.53016C14.7682 9.53016 15.0336 9.2544 15.0336 8.91423C15.0336 8.57406 14.7682 8.2983 14.4407 8.2983C14.1132 8.2983 13.8478 8.57406 13.8478 8.91423C13.8478 9.2544 14.1132 9.53016 14.4407 9.53016Z" fill="white"/>
<path d="M6.40372 7.3856C6.70142 7.3856 6.94275 7.1349 6.94275 6.82566C6.94275 6.51641 6.70142 6.26572 6.40372 6.26572C6.10602 6.26572 5.86469 6.51641 5.86469 6.82566C5.86469 7.1349 6.10602 7.3856 6.40372 7.3856Z" fill="white"/>
<path d="M8.41432 7.3856C8.71202 7.3856 8.95335 7.1349 8.95335 6.82566C8.95335 6.51641 8.71202 6.26572 8.41432 6.26572C8.11662 6.26572 7.87528 6.51641 7.87528 6.82566C7.87528 7.1349 8.11662 7.3856 8.41432 7.3856Z" fill="white"/>
<path d="M10.4195 7.3856C10.7172 7.3856 10.9586 7.1349 10.9586 6.82566C10.9586 6.51641 10.7172 6.26572 10.4195 6.26572C10.1218 6.26572 9.88049 6.51641 9.88049 6.82566C9.88049 7.1349 10.1218 7.3856 10.4195 7.3856Z" fill="white"/>
<path d="M12.4301 7.3856C12.7278 7.3856 12.9692 7.1349 12.9692 6.82566C12.9692 6.51641 12.7278 6.26572 12.4301 6.26572C12.1324 6.26572 11.8911 6.51641 11.8911 6.82566C11.8911 7.1349 12.1324 7.3856 12.4301 7.3856Z" fill="white"/>
<path d="M4.39312 5.24103C4.66105 5.24103 4.87826 5.0154 4.87826 4.73708C4.87826 4.45876 4.66105 4.23314 4.39312 4.23314C4.12519 4.23314 3.90799 4.45876 3.90799 4.73708C3.90799 5.0154 4.12519 5.24103 4.39312 5.24103Z" fill="white"/>
<path d="M6.40372 5.24103C6.67165 5.24103 6.88885 5.0154 6.88885 4.73708C6.88885 4.45876 6.67165 4.23314 6.40372 4.23314C6.13579 4.23314 5.91859 4.45876 5.91859 4.73708C5.91859 5.0154 6.13579 5.24103 6.40372 5.24103Z" fill="white"/>
<path d="M8.41432 5.24103C8.68225 5.24103 8.89945 5.0154 8.89945 4.73708C8.89945 4.45876 8.68225 4.23314 8.41432 4.23314C8.14639 4.23314 7.92919 4.45876 7.92919 4.73708C7.92919 5.0154 8.14639 5.24103 8.41432 5.24103Z" fill="white"/>
<path d="M10.4195 5.24103C10.6875 5.24103 10.9047 5.0154 10.9047 4.73708C10.9047 4.45876 10.6875 4.23314 10.4195 4.23314C10.1516 4.23314 9.93439 4.45876 9.93439 4.73708C9.93439 5.0154 10.1516 5.24103 10.4195 5.24103Z" fill="white"/>
<path d="M2.38792 3.10206C2.62608 3.10206 2.81915 2.90151 2.81915 2.65411C2.81915 2.40671 2.62608 2.20616 2.38792 2.20616C2.14976 2.20616 1.95669 2.40671 1.95669 2.65411C1.95669 2.90151 2.14976 3.10206 2.38792 3.10206Z" fill="white"/>
<path d="M4.39312 3.10206C4.63128 3.10206 4.82435 2.90151 4.82435 2.65411C4.82435 2.40671 4.63128 2.20616 4.39312 2.20616C4.15496 2.20616 3.9619 2.40671 3.9619 2.65411C3.9619 2.90151 4.15496 3.10206 4.39312 3.10206Z" fill="white"/>
<path d="M6.40372 3.10206C6.64188 3.10206 6.83495 2.90151 6.83495 2.65411C6.83495 2.40671 6.64188 2.20616 6.40372 2.20616C6.16556 2.20616 5.97249 2.40671 5.97249 2.65411C5.97249 2.90151 6.16556 3.10206 6.40372 3.10206Z" fill="white"/>
<path d="M8.41432 3.10206C8.65248 3.10206 8.84554 2.90151 8.84554 2.65411C8.84554 2.40671 8.65248 2.20616 8.41432 2.20616C8.17616 2.20616 7.98309 2.40671 7.98309 2.65411C7.98309 2.90151 8.17616 3.10206 8.41432 3.10206Z" fill="white"/>
<path d="M0.377324 0.957496C0.585714 0.957496 0.754647 0.78201 0.754647 0.565538C0.754647 0.349066 0.585714 0.173581 0.377324 0.173581C0.168934 0.173581 0 0.349066 0 0.565538C0 0.78201 0.168934 0.957496 0.377324 0.957496Z" fill="white"/>
<path d="M2.38792 0.957496C2.59631 0.957496 2.76524 0.78201 2.76524 0.565538C2.76524 0.349066 2.59631 0.173581 2.38792 0.173581C2.17953 0.173581 2.0106 0.349066 2.0106 0.565538C2.0106 0.78201 2.17953 0.957496 2.38792 0.957496Z" fill="white"/>
<path d="M4.39312 0.957496C4.60151 0.957496 4.77045 0.78201 4.77045 0.565538C4.77045 0.349066 4.60151 0.173581 4.39312 0.173581C4.18473 0.173581 4.0158 0.349066 4.0158 0.565538C4.0158 0.78201 4.18473 0.957496 4.39312 0.957496Z" fill="white"/>
<path d="M6.40372 0.957496C6.61211 0.957496 6.78104 0.78201 6.78104 0.565538C6.78104 0.349066 6.61211 0.173581 6.40372 0.173581C6.19533 0.173581 6.0264 0.349066 6.0264 0.565538C6.0264 0.78201 6.19533 0.957496 6.40372 0.957496Z" fill="white"/>
<path d="M8.41432 13.7017C8.74179 13.7017 9.00725 13.4259 9.00725 13.0858C9.00725 12.7456 8.74179 12.4698 8.41432 12.4698C8.08685 12.4698 7.82138 12.7456 7.82138 13.0858C7.82138 13.4259 8.08685 13.7017 8.41432 13.7017Z" fill="white"/>
<path d="M10.4195 13.7017C10.747 13.7017 11.0125 13.4259 11.0125 13.0858C11.0125 12.7456 10.747 12.4698 10.4195 12.4698C10.0921 12.4698 9.82658 12.7456 9.82658 13.0858C9.82658 13.4259 10.0921 13.7017 10.4195 13.7017Z" fill="white"/>
<path d="M12.4301 13.7017C12.7576 13.7017 13.0231 13.4259 13.0231 13.0858C13.0231 12.7456 12.7576 12.4698 12.4301 12.4698C12.1026 12.4698 11.8372 12.7456 11.8372 13.0858C11.8372 13.4259 12.1026 13.7017 12.4301 13.7017Z" fill="white"/>
<path d="M14.4407 13.7017C14.7682 13.7017 15.0336 13.4259 15.0336 13.0858C15.0336 12.7456 14.7682 12.4698 14.4407 12.4698C14.1132 12.4698 13.8478 12.7456 13.8478 13.0858C13.8478 13.4259 14.1132 13.7017 14.4407 13.7017Z" fill="white"/>
<path d="M6.40372 15.7343C6.70142 15.7343 6.94275 15.4836 6.94275 15.1743C6.94275 14.8651 6.70142 14.6144 6.40372 14.6144C6.10602 14.6144 5.86469 14.8651 5.86469 15.1743C5.86469 15.4836 6.10602 15.7343 6.40372 15.7343Z" fill="white"/>
<path d="M8.41432 15.7343C8.71202 15.7343 8.95335 15.4836 8.95335 15.1743C8.95335 14.8651 8.71202 14.6144 8.41432 14.6144C8.11662 14.6144 7.87528 14.8651 7.87528 15.1743C7.87528 15.4836 8.11662 15.7343 8.41432 15.7343Z" fill="white"/>
<path d="M10.4195 15.7343C10.7172 15.7343 10.9586 15.4836 10.9586 15.1743C10.9586 14.8651 10.7172 14.6144 10.4195 14.6144C10.1218 14.6144 9.88049 14.8651 9.88049 15.1743C9.88049 15.4836 10.1218 15.7343 10.4195 15.7343Z" fill="white"/>
<path d="M12.4301 15.7343C12.7278 15.7343 12.9692 15.4836 12.9692 15.1743C12.9692 14.8651 12.7278 14.6144 12.4301 14.6144C12.1324 14.6144 11.8911 14.8651 11.8911 15.1743C11.8911 15.4836 12.1324 15.7343 12.4301 15.7343Z" fill="white"/>
<path d="M4.39312 17.7613C4.66105 17.7613 4.87826 17.5356 4.87826 17.2573C4.87826 16.979 4.66105 16.7534 4.39312 16.7534C4.12519 16.7534 3.90799 16.979 3.90799 17.2573C3.90799 17.5356 4.12519 17.7613 4.39312 17.7613Z" fill="white"/>
<path d="M6.40372 17.7613C6.67165 17.7613 6.88885 17.5356 6.88885 17.2573C6.88885 16.979 6.67165 16.7534 6.40372 16.7534C6.13579 16.7534 5.91859 16.979 5.91859 17.2573C5.91859 17.5356 6.13579 17.7613 6.40372 17.7613Z" fill="white"/>
<path d="M8.41432 17.7613C8.68225 17.7613 8.89945 17.5356 8.89945 17.2573C8.89945 16.979 8.68225 16.7534 8.41432 16.7534C8.14639 16.7534 7.92919 16.979 7.92919 17.2573C7.92919 17.5356 8.14639 17.7613 8.41432 17.7613Z" fill="white"/>
<path d="M10.4195 17.7613C10.6875 17.7613 10.9047 17.5356 10.9047 17.2573C10.9047 16.979 10.6875 16.7534 10.4195 16.7534C10.1516 16.7534 9.93439 16.979 9.93439 17.2573C9.93439 17.5356 10.1516 17.7613 10.4195 17.7613Z" fill="white"/>
<path d="M2.38792 19.7938C2.62608 19.7938 2.81915 19.5933 2.81915 19.3459C2.81915 19.0985 2.62608 18.8979 2.38792 18.8979C2.14976 18.8979 1.95669 19.0985 1.95669 19.3459C1.95669 19.5933 2.14976 19.7938 2.38792 19.7938Z" fill="white"/>
<path d="M4.39312 19.7938C4.63128 19.7938 4.82435 19.5933 4.82435 19.3459C4.82435 19.0985 4.63128 18.8979 4.39312 18.8979C4.15496 18.8979 3.9619 19.0985 3.9619 19.3459C3.9619 19.5933 4.15496 19.7938 4.39312 19.7938Z" fill="white"/>
<path d="M6.40372 19.7938C6.64188 19.7938 6.83495 19.5933 6.83495 19.3459C6.83495 19.0985 6.64188 18.8979 6.40372 18.8979C6.16556 18.8979 5.97249 19.0985 5.97249 19.3459C5.97249 19.5933 6.16556 19.7938 6.40372 19.7938Z" fill="white"/>
<path d="M8.41432 19.7938C8.65248 19.7938 8.84554 19.5933 8.84554 19.3459C8.84554 19.0985 8.65248 18.8979 8.41432 18.8979C8.17616 18.8979 7.98309 19.0985 7.98309 19.3459C7.98309 19.5933 8.17616 19.7938 8.41432 19.7938Z" fill="white"/>
<path d="M0.377324 21.8264C0.585714 21.8264 0.754647 21.6509 0.754647 21.4345C0.754647 21.218 0.585714 21.0425 0.377324 21.0425C0.168934 21.0425 0 21.218 0 21.4345C0 21.6509 0.168934 21.8264 0.377324 21.8264Z" fill="white"/>
<path d="M2.38792 21.8264C2.59631 21.8264 2.76524 21.6509 2.76524 21.4345C2.76524 21.218 2.59631 21.0425 2.38792 21.0425C2.17953 21.0425 2.0106 21.218 2.0106 21.4345C2.0106 21.6509 2.17953 21.8264 2.38792 21.8264Z" fill="white"/>
<path d="M4.39312 21.8264C4.60151 21.8264 4.77045 21.6509 4.77045 21.4345C4.77045 21.218 4.60151 21.0425 4.39312 21.0425C4.18473 21.0425 4.0158 21.218 4.0158 21.4345C4.0158 21.6509 4.18473 21.8264 4.39312 21.8264Z" fill="white"/>
<path d="M6.40372 21.8264C6.61211 21.8264 6.78104 21.6509 6.78104 21.4345C6.78104 21.218 6.61211 21.0425 6.40372 21.0425C6.19533 21.0425 6.0264 21.218 6.0264 21.4345C6.0264 21.6509 6.19533 21.8264 6.40372 21.8264Z" fill="white"/>
<path d="M9.88049 11.6411C10.2228 11.6411 10.5004 11.3528 10.5004 10.9972C10.5004 10.6416 10.2228 10.3533 9.88049 10.3533C9.53813 10.3533 9.2606 10.6416 9.2606 10.9972C9.2606 11.3528 9.53813 11.6411 9.88049 11.6411Z" fill="white"/>
</svg>
