<svg width="1440" height="1930" viewBox="0 0 1440 1930" fill="none" xmlns="http://www.w3.org/2000/svg">
<g opacity="0.8">
<g filter="url(#filter0_f_49_2019)">
<ellipse cx="1337" cy="1006.81" rx="683" ry="623" fill="#4D3589"/>
</g>
<g filter="url(#filter1_f_49_2019)">
<ellipse cx="269.107" cy="759.747" rx="651.829" ry="344.872" transform="rotate(10.5409 269.107 759.747)" fill="#002BF4"/>
</g>
<g filter="url(#filter2_f_49_2019)">
<path d="M757 427.635C197.742 415.671 25.5001 202.047 -169 208.127C-413.5 215.771 -367.944 416.147 -169 492.494C65.5 582.486 1136 435.742 757 427.635Z" fill="#AA3FFF"/>
</g>
<g filter="url(#filter3_f_49_2019)">
<path d="M-29.5 990.461C-201.26 990.461 -282 1081.8 -282 1204.96C-282 1461.96 1234.17 1553.34 1463.76 1339.02C1632.5 1181.51 1610.86 959.715 1433 880.961C1232 791.961 1108.98 810.607 911.5 880.961C746.728 939.662 693.064 994.957 512 1044.46C342.525 1090.8 123.067 990.461 -29.5 990.461Z" fill="#000461"/>
</g>
</g>
<defs>
<filter id="filter0_f_49_2019" x="354" y="83.814" width="1966" height="1846" filterUnits="userSpaceOnUse" color-interpolation-filters="sRGB">
<feFlood flood-opacity="0" result="BackgroundImageFix"/>
<feBlend mode="normal" in="SourceGraphic" in2="BackgroundImageFix" result="shape"/>
<feGaussianBlur stdDeviation="150" result="effect1_foregroundBlur_49_2019"/>
</filter>
<filter id="filter1_f_49_2019" x="-774.867" y="0.238708" width="2087.95" height="1519.02" filterUnits="userSpaceOnUse" color-interpolation-filters="sRGB">
<feFlood flood-opacity="0" result="BackgroundImageFix"/>
<feBlend mode="normal" in="SourceGraphic" in2="BackgroundImageFix" result="shape"/>
<feGaussianBlur stdDeviation="200" result="effect1_foregroundBlur_49_2019"/>
</filter>
<filter id="filter2_f_49_2019" x="-535.728" y="8" width="1573.16" height="713.59" filterUnits="userSpaceOnUse" color-interpolation-filters="sRGB">
<feFlood flood-opacity="0" result="BackgroundImageFix"/>
<feBlend mode="normal" in="SourceGraphic" in2="BackgroundImageFix" result="shape"/>
<feGaussianBlur stdDeviation="100" result="effect1_foregroundBlur_49_2019"/>
</filter>
<filter id="filter3_f_49_2019" x="-682" y="421" width="2661.1" height="1437.62" filterUnits="userSpaceOnUse" color-interpolation-filters="sRGB">
<feFlood flood-opacity="0" result="BackgroundImageFix"/>
<feBlend mode="normal" in="SourceGraphic" in2="BackgroundImageFix" result="shape"/>
<feGaussianBlur stdDeviation="200" result="effect1_foregroundBlur_49_2019"/>
</filter>
</defs>
</svg>
