<svg width="48" height="48" viewBox="0 0 48 48" fill="none" xmlns="http://www.w3.org/2000/svg">
<path d="M26 4V6H40V10H26V38H34V42H14V38H22V10H8V6H22V4H26ZM10 12.686L15.656 18.344C17.104 19.79 18 21.79 18 24C18 28.42 14.42 32 10 32C5.58 32 2 28.42 2 24C2 21.79 2.896 19.79 4.344 18.344L10 12.686ZM38 12.686L43.656 18.344C45.104 19.79 46 21.79 46 24C46 28.42 42.42 32 38 32C33.58 32 30 28.42 30 24C30 21.79 30.896 19.79 32.344 18.344L38 12.686ZM10 18.344L7.172 21.172C6.424 21.92 6 22.92 6 24C6 26.21 7.79 28 10 28C12.21 28 14 26.21 14 24C14 22.92 13.576 21.92 12.828 21.172L10 18.344ZM38 18.344L35.172 21.172C34.424 21.92 34 22.92 34 24C34 26.21 35.79 28 38 28C40.21 28 42 26.21 42 24C42 22.92 41.576 21.92 40.828 21.172L38 18.344Z" fill="url(#paint0_linear_17_2556)"/>
<defs>
<linearGradient id="paint0_linear_17_2556" x1="24" y1="4" x2="24" y2="42" gradientUnits="userSpaceOnUse">
<stop stop-color="white"/>
<stop offset="1" stop-color="#FA5711"/>
</linearGradient>
</defs>
</svg>
