<svg width="48" height="48" viewBox="0 0 48 48" fill="none" xmlns="http://www.w3.org/2000/svg">
<path d="M6.32209 8.93796C8.64221 6.61742 11.7541 5.26014 15.0333 5.13846C18.3125 5.01679 21.5164 6.13973 24.0021 8.28196C26.4856 6.1433 29.6853 5.02162 32.9605 5.14149C36.2358 5.26135 39.3449 6.61391 41.6654 8.92838C43.986 11.2428 45.3467 14.3484 45.4751 17.6233C45.6035 20.8983 44.4902 24.1009 42.3581 26.59L26.8281 42.17C26.1146 42.8837 25.1576 43.3014 24.1491 43.3392C23.1406 43.377 22.1551 43.0323 21.3901 42.374L21.1701 42.172L5.64209 26.59C3.51106 24.103 2.39724 20.9034 2.52332 17.6307C2.64939 14.3581 4.00606 11.2536 6.32209 8.93796ZM9.15008 11.766C7.51457 13.4019 6.57179 15.6048 6.51742 17.9175C6.46305 20.2302 7.30126 22.4749 8.85809 24.186L9.15008 24.494L24.0001 39.344L34.6061 28.736L27.5361 21.666L25.4161 23.786C24.859 24.3433 24.1976 24.7854 23.4697 25.0872C22.7417 25.3889 21.9615 25.5443 21.1735 25.5445C19.5821 25.5448 18.0557 24.913 16.9301 23.788C15.8045 22.6629 15.172 21.1368 15.1716 19.5454C15.1712 17.9539 15.803 16.4275 16.9281 15.302L21.1321 11.096C19.459 9.76071 17.3649 9.06534 15.2255 9.13462C13.086 9.20389 11.0413 10.0333 9.45809 11.474L9.15008 11.766ZM26.1221 17.422C26.4971 17.047 27.0058 16.8364 27.5361 16.8364C28.0664 16.8364 28.575 17.047 28.9501 17.422L37.4341 25.906L38.8501 24.494C40.513 22.8322 41.4597 20.5858 41.4878 18.2351C41.5158 15.8844 40.6229 13.616 39.0001 11.9151C37.3773 10.2141 35.1534 9.2157 32.804 9.13327C30.4545 9.05084 28.1661 9.89096 26.4281 11.474L26.1221 11.766L19.7581 18.13C19.4114 18.4764 19.204 18.938 19.1753 19.4273C19.1465 19.9165 19.2984 20.3993 19.6021 20.784L19.7581 20.958C20.1045 21.3046 20.5662 21.512 21.0554 21.5408C21.5447 21.5695 22.0274 21.4177 22.4121 21.114L22.5861 20.958L26.1221 17.422Z" fill="url(#paint0_linear_18_3472)"/>
<defs>
<linearGradient id="paint0_linear_18_3472" x1="23.9994" y1="5.12952" x2="23.9994" y2="43.342" gradientUnits="userSpaceOnUse">
<stop stop-color="white"/>
<stop offset="1" stop-color="#FF34DF"/>
</linearGradient>
</defs>
</svg>
