<svg width="48" height="48" viewBox="0 0 48 48" fill="none" xmlns="http://www.w3.org/2000/svg">
<path d="M30.3979 19.8901C29.5305 19.0683 28.9726 17.9729 28.8179 16.7881L28.0119 10.6221L22.5519 13.5941C21.5021 14.1661 20.2873 14.3589 19.1119 14.1401L12.9999 13.0001L14.1399 19.1121C14.3588 20.2874 14.166 21.5023 13.5939 22.5521L10.6219 28.0121L16.7879 28.8181C17.9721 28.9731 19.0667 29.531 19.8879 30.3981L24.1639 34.9121L26.8359 29.2981C27.3488 28.2192 28.2175 27.3498 29.2959 26.8361L34.9119 24.1641L30.3979 19.8901ZM30.4479 31.0161L26.0219 40.3161C25.9382 40.4919 25.8129 40.6447 25.6569 40.7613C25.5009 40.8779 25.3189 40.9548 25.1265 40.9853C24.9342 41.0158 24.7373 40.9991 24.5529 40.9365C24.3684 40.8739 24.202 40.7674 24.0679 40.6261L16.9839 33.1481C16.7947 32.9485 16.5426 32.82 16.2699 32.7841L6.05595 31.4481C5.86297 31.4226 5.67908 31.3506 5.52012 31.2383C5.36117 31.126 5.23192 30.9767 5.14354 30.8032C5.05516 30.6298 5.01029 30.4375 5.0128 30.2429C5.0153 30.0482 5.06512 29.8571 5.15795 29.6861L10.0819 20.6381C10.2128 20.3961 10.2566 20.1165 10.2059 19.8461L8.31995 9.72006C8.28413 9.52839 8.29556 9.33089 8.35325 9.14463C8.41093 8.95838 8.51313 8.78899 8.651 8.65111C8.78888 8.51324 8.95827 8.41104 9.14452 8.35336C9.33078 8.29567 9.52828 8.28424 9.71995 8.32006L19.8459 10.2061C20.1164 10.2567 20.396 10.213 20.6379 10.0821L29.6859 5.15806C29.8572 5.06521 30.0484 5.01543 30.2432 5.01303C30.438 5.01063 30.6304 5.05567 30.8038 5.14428C30.9773 5.23288 31.1266 5.36237 31.2388 5.52158C31.351 5.68078 31.4228 5.86491 31.4479 6.05806L32.7839 16.2701C32.8199 16.5427 32.9484 16.7948 33.1479 16.9841L40.6259 24.0681C40.7672 24.2021 40.8738 24.3685 40.9364 24.553C40.999 24.7374 41.0157 24.9343 40.9852 25.1266C40.9547 25.319 40.8778 25.501 40.7612 25.657C40.6446 25.813 40.4918 25.9383 40.3159 26.0221L31.0159 30.4481C30.767 30.5665 30.5664 30.7671 30.4479 31.0161ZM32.0419 34.8701L34.8699 32.0421L43.3559 40.5261L40.5259 43.3561L32.0419 34.8701Z" fill="url(#paint0_linear_19_5796)"/>
<defs>
<linearGradient id="paint0_linear_19_5796" x1="24.1843" y1="5.01294" x2="24.1843" y2="43.3561" gradientUnits="userSpaceOnUse">
<stop stop-color="white"/>
<stop offset="1" stop-color="#00BDD7"/>
</linearGradient>
</defs>
</svg>
