<svg width="48" height="48" viewBox="0 0 48 48" fill="none" xmlns="http://www.w3.org/2000/svg">
<path d="M24 4C28.7739 4 33.3523 5.89642 36.7279 9.27208C40.1036 12.6477 42 17.2261 42 22V37C42.0007 38.4959 41.5222 39.9527 40.6347 41.1568C39.7471 42.3609 38.4971 43.249 37.068 43.6909C35.6389 44.1329 34.1058 44.1054 32.6935 43.6125C31.2811 43.1195 30.0638 42.1872 29.22 40.952C28.6975 41.8773 27.9386 42.6473 27.0209 43.183C26.1032 43.7187 25.0596 44.0011 23.997 44.0011C22.9344 44.0011 21.8908 43.7187 20.9731 43.183C20.0554 42.6473 19.2965 41.8773 18.774 40.952C17.948 42.1577 16.7654 43.0746 15.392 43.5742C14.0185 44.0738 12.5232 44.131 11.1156 43.7377C9.70801 43.3445 8.45882 42.5205 7.5432 41.3814C6.62758 40.2423 6.09145 38.8452 6.01 37.386L6 36.998V22C6 17.2261 7.89642 12.6477 11.2721 9.27208C14.6477 5.89642 19.2261 4 24 4ZM24 8C20.37 7.99994 16.882 9.40979 14.2715 11.9321C11.6611 14.4545 10.1325 17.8922 10.008 21.52L10 22V36.892L10.004 37.168C10.0385 37.7676 10.2521 38.343 10.6172 38.8198C10.9823 39.2966 11.4821 39.6528 12.052 39.8424C12.6218 40.032 13.2355 40.0462 13.8134 39.8832C14.3914 39.7202 14.9072 39.3874 15.294 38.928L15.47 38.696C15.853 38.1345 16.3727 37.6798 16.9802 37.3749C17.5876 37.0699 18.2628 36.9249 18.9419 36.9533C19.621 36.9817 20.2816 37.1827 20.8615 37.5373C21.4414 37.8919 21.9213 38.3884 22.256 38.98C22.4295 39.2886 22.6818 39.5456 22.9873 39.7246C23.2927 39.9037 23.6402 39.9984 23.9942 39.999C24.3483 39.9996 24.6961 39.9061 25.0022 39.7281C25.3082 39.5501 25.5615 39.294 25.736 38.986C26.0562 38.4177 26.5105 37.9363 27.0593 37.5837C27.6081 37.2312 28.2349 37.0183 28.8849 36.9634C29.5348 36.9086 30.1884 37.0136 30.7885 37.2692C31.3887 37.5248 31.9172 37.9233 32.328 38.43L32.522 38.69C32.8692 39.1999 33.3651 39.5903 33.9422 39.8082C34.5193 40.026 35.1496 40.0607 35.7471 39.9074C36.3446 39.7542 36.8803 39.4204 37.2813 38.9517C37.6823 38.483 37.9291 37.902 37.988 37.288L38 37V22C38 18.287 36.525 14.726 33.8995 12.1005C31.274 9.475 27.713 8 24 8ZM32 26C32 28.0871 31.1844 30.0916 29.7272 31.5858C28.27 33.0799 26.2865 33.9454 24.2001 33.9976C22.1136 34.0498 20.0894 33.2846 18.5593 31.8651C17.0291 30.4457 16.1143 28.4845 16.01 26.4L16 26H20C20 27.0609 20.4214 28.0783 21.1716 28.8284C21.9217 29.5786 22.9391 30 24 30C25.0609 30 26.0783 29.5786 26.8284 28.8284C27.5786 28.0783 28 27.0609 28 26H32ZM24 14C25.0609 14 26.0783 14.4214 26.8284 15.1716C27.5786 15.9217 28 16.9391 28 18C28 19.0609 27.5786 20.0783 26.8284 20.8284C26.0783 21.5786 25.0609 22 24 22C22.9391 22 21.9217 21.5786 21.1716 20.8284C20.4214 20.0783 20 19.0609 20 18C20 16.9391 20.4214 15.9217 21.1716 15.1716C21.9217 14.4214 22.9391 14 24 14Z" fill="url(#paint0_linear_21_5815)"/>
<defs>
<linearGradient id="paint0_linear_21_5815" x1="24" y1="4" x2="24" y2="44.0034" gradientUnits="userSpaceOnUse">
<stop stop-color="white"/>
<stop offset="1" stop-color="#FFC700"/>
</linearGradient>
</defs>
</svg>
