<svg width="48" height="48" viewBox="0 0 48 48" fill="none" xmlns="http://www.w3.org/2000/svg">
<path d="M29.87 14.408L17.87 8.408L8 12.638V37.934L18.13 33.594L30.13 39.594L40 35.36V10.066L29.87 14.406V14.408ZM4 10L18 4L30 10L42.606 4.598C42.7582 4.53277 42.9242 4.50634 43.0891 4.52108C43.254 4.53583 43.4126 4.59129 43.5508 4.68249C43.689 4.77369 43.8024 4.89777 43.8808 5.0436C43.9592 5.18942 44.0001 5.35243 44 5.518V38L30 44L18 38L5.394 43.402C5.24183 43.4672 5.07584 43.4937 4.91093 43.4789C4.74602 43.4642 4.58736 43.4087 4.44917 43.3175C4.31099 43.2263 4.19761 43.1022 4.11921 42.9564C4.04082 42.8106 3.99985 42.6476 4 42.482V10ZM12 22H16V26H12V22ZM20 22H24V26H20V22ZM31.996 21.874L34.472 19.4L36.592 21.52L34.118 23.996L36.592 26.472L34.472 28.592L31.996 26.118L29.522 28.592L27.4 26.472L29.874 23.996L27.4 21.522L29.52 19.4L31.996 21.874Z" fill="url(#paint0_linear_19_4602)"/>
<defs>
<linearGradient id="paint0_linear_19_4602" x1="24" y1="4" x2="24" y2="44" gradientUnits="userSpaceOnUse">
<stop stop-color="white"/>
<stop offset="1" stop-color="#00BC35"/>
</linearGradient>
</defs>
</svg>
